<svg width="145" height="41" viewBox="0 0 145 41" fill="none" xmlns="http://www.w3.org/2000/svg">
<path fill-rule="evenodd" clip-rule="evenodd" d="M61.8635 13.999H59.1502L53.4258 27.4826H56.4251L57.6461 24.48H63.3027L64.5237 27.4826H67.5938L61.8635 13.999ZM60.4727 17.5381L62.2422 21.8781H58.7031L60.4727 17.5381Z" fill="#1976D3"/>
<path fill-rule="evenodd" clip-rule="evenodd" d="M73.6676 20.6746L69.1995 14.0967H72.6383L75.4459 18.4367L78.2742 14.0967H81.6157L77.1358 20.6362L81.7986 27.4829H78.3686L75.3663 22.8948L72.3493 27.4829H69.0078L73.6676 20.6746Z" fill="#1976D3"/>
<path fill-rule="evenodd" clip-rule="evenodd" d="M89.9369 14.0967H84.7227V27.4829H89.9369C94.1395 27.4829 97.0445 24.5954 97.0445 20.7898C97.0445 16.9841 94.1395 14.0967 89.9369 14.0967ZM93.9692 20.7894C93.9692 23.1986 92.3442 24.8253 89.9377 24.8253H87.6638V16.7535H89.9377C92.3442 16.7535 93.9692 18.3802 93.9692 20.7894Z" fill="#1976D3"/>
<path fill-rule="evenodd" clip-rule="evenodd" d="M107.078 13.8665C102.952 13.8665 99.9531 16.9842 99.9531 20.7898C99.9531 24.6339 102.905 27.7132 107.031 27.7132C111.157 27.7132 114.157 24.6339 114.157 20.7898C114.157 16.9458 111.204 13.8665 107.078 13.8665ZM107.042 16.5812C109.41 16.5812 111.091 18.4943 111.091 20.7883C111.091 23.1207 109.449 25.0043 107.08 25.0043C104.712 25.0043 103.031 23.1207 103.031 20.7883C103.031 18.4559 104.674 16.5812 107.042 16.5812Z" fill="#1976D3"/>
<path fill-rule="evenodd" clip-rule="evenodd" d="M117.078 14.0811H120.249L123.764 19.7438L127.277 14.0811H130.447V27.4731H127.524V18.734L123.764 24.4499H123.687L119.962 18.8049V27.4731H117.078V14.0811Z" fill="#1976D3"/>
<path fill-rule="evenodd" clip-rule="evenodd" d="M134.793 14.0811H144.971V16.7028H137.716V19.419H144.021V22.0525H137.716V24.8662H144.971V27.4849H134.793V14.0811Z" fill="#1976D3"/>
<path fill-rule="evenodd" clip-rule="evenodd" d="M7.96412 15.6438H7.77832V15.8298V17.8463V18.0323H7.96412H10.8013V25.7705V25.9565H10.9871H13.1695H13.3553V25.7705V18.0323H16.1924H16.3782V17.8463V15.8298V15.6438H16.1924H7.96412Z" fill="#004392"/>
<path fill-rule="evenodd" clip-rule="evenodd" d="M19.375 15.6436H23.4331C26.5976 15.6436 28.8951 17.8106 28.8951 20.7984C28.8951 23.7863 26.5976 25.9563 23.4331 25.9563H19.375V15.6436ZM21.9287 23.6149H23.4328V23.609C25.1109 23.609 26.2375 22.493 26.2375 20.8131C26.2375 19.1331 25.1109 18.0053 23.4328 18.0053H21.9287V23.6149Z" fill="#004392"/>
<path fill-rule="evenodd" clip-rule="evenodd" d="M27.5789 8.58142C28.7826 8.58142 29.7584 7.60458 29.7584 6.3996C29.7584 5.19461 28.7826 4.21777 27.5789 4.21777C26.3752 4.21777 25.3994 5.19461 25.3994 6.3996C25.3994 7.60458 26.3752 8.58142 27.5789 8.58142Z" fill="#004392"/>
<path fill-rule="evenodd" clip-rule="evenodd" d="M46.0934 16.8129H42.0234V14.0967H53.1036V16.8129H49.0367V27.4829H46.0875L46.0934 16.8129Z" fill="#1976D3"/>
<path fill-rule="evenodd" clip-rule="evenodd" d="M34.1064 9.27509L32.3693 8.27128C32.1883 8.73529 31.9398 9.17004 31.632 9.56148L33.3632 10.5623C34.1881 11.0412 34.6968 11.9225 34.6992 12.877V28.7196C34.6974 29.6742 34.1885 30.5559 33.3632 31.0343L19.6582 38.9556C18.8312 39.4322 17.8133 39.4322 16.9863 38.9556L3.28126 31.0343C2.45146 30.5589 1.93777 29.6767 1.93347 28.7196V12.877C1.93594 11.9225 2.44465 11.0412 3.26947 10.5623L16.9745 2.64106C17.8015 2.16445 18.8194 2.16445 19.6464 2.64106L22.8552 4.4863C23.0409 4.02506 23.2944 3.59417 23.6072 3.20792L20.4014 1.35381C19.1153 0.612532 17.5322 0.612532 16.246 1.35381L2.54101 9.27509C1.26196 10.0228 0.475875 11.3943 0.476563 12.877V28.7196C0.478929 30.2054 1.27103 31.5776 2.55576 32.3215L16.2607 40.2428C17.5473 40.9829 19.1297 40.9829 20.4162 40.2428L34.1212 32.3215C35.3998 31.5734 36.1857 30.2022 36.1856 28.7196V12.877C36.1827 11.3914 35.3907 10.0195 34.1064 9.27509Z" fill="#1976D3"/>
</svg>
