<svg width="530" height="361" viewBox="0 0 530 361" fill="none" xmlns="http://www.w3.org/2000/svg">
<path fill-rule="evenodd" clip-rule="evenodd" d="M265.122 360.652C118.974 360.652 0.49707 352.886 0.49707 343.307C0.49707 333.727 118.974 325.96 265.122 325.96C411.271 325.96 529.747 333.727 529.747 343.307C529.747 352.886 411.271 360.652 265.122 360.652Z" fill="#D0E2F5"/>
<path fill-rule="evenodd" clip-rule="evenodd" d="M224.834 69.0236C208.504 9.7855 134.916 -9.29767 92.7447 34.9744C92.1386 35.6097 91.5335 36.2566 90.9285 36.9138C30.4678 102.637 59.0299 264.598 185.209 305.648C311.389 346.698 442.633 271.736 450.006 204.726C457.379 137.715 399.166 116.66 308.826 135.398C257.785 145.984 235 105.901 224.834 69.0236Z" fill="#DCEDFE"/>
<path fill-rule="evenodd" clip-rule="evenodd" d="M356.428 57.9696C339.623 54.7846 330.113 67.2427 338.74 81.6684C341.59 86.4366 346.377 91.2779 354.118 95.6396C383.607 112.255 405.306 104.425 399.273 81.8502C395.549 67.9167 373.082 61.1265 356.428 57.9696Z" fill="#DCEDFE"/>
<path fill-rule="evenodd" clip-rule="evenodd" d="M60.6158 198.85C50.1202 185.344 34.7487 188.397 31.6744 204.921C30.6577 210.383 31.0443 217.18 33.965 225.572C45.0876 257.539 66.5407 266.022 76.9496 245.102C83.373 232.19 71.0174 212.235 60.6158 198.85Z" fill="#DCF2FF"/>
<path fill-rule="evenodd" clip-rule="evenodd" d="M461.906 212.514C460.351 220.655 467.073 226.422 474.691 223.284C477.209 222.247 479.748 220.248 482.008 216.734C490.615 203.345 486.255 191.86 474.272 193.04C466.875 193.767 463.447 204.445 461.906 212.514Z" fill="#DCF2FF"/>
<path fill-rule="evenodd" clip-rule="evenodd" d="M485.49 166.171C498.241 168.832 507.484 158.424 502.757 146.369C501.195 142.385 498.122 138.34 492.66 134.697C471.852 120.813 453.687 127.356 455.219 146.218C456.165 157.86 472.853 163.533 485.49 166.171Z" fill="#DCEDFE"/>
<path fill-rule="evenodd" clip-rule="evenodd" d="M215.084 28.4224C221.507 33.6598 229.777 30.4862 230.637 22.2927C230.92 19.5841 230.37 16.4001 228.351 12.7417C220.661 -1.19399 208.485 -2.81682 203.826 8.28698C200.952 15.1399 208.717 23.2321 215.084 28.4224Z" fill="#DCEDFE"/>
<path fill-rule="evenodd" clip-rule="evenodd" d="M165.706 73.9926H162.85C162.85 60.1656 151.482 48.9155 137.509 48.9155C123.535 48.9155 112.166 60.1656 112.166 73.9926H109.308C109.308 58.5898 121.96 46.0586 137.509 46.0586C153.057 46.0586 165.706 58.5898 165.706 73.9926Z" fill="#003260"/>
<path fill-rule="evenodd" clip-rule="evenodd" d="M361.406 87.2789C361.406 88.4587 360.448 89.4159 359.269 89.4159H357.988C356.807 89.4159 355.851 88.4587 355.851 87.2789V85.9978C355.851 84.817 356.807 83.8608 357.988 83.8608H359.269C360.448 83.8608 361.406 84.817 361.406 85.9978V87.2789Z" fill="#003260"/>
<path fill-rule="evenodd" clip-rule="evenodd" d="M409.375 87.2789C409.375 88.4587 410.332 89.4159 411.511 89.4159H412.793C413.973 89.4159 414.93 88.4587 414.93 87.2789V85.9978C414.93 84.817 413.973 83.8608 412.793 83.8608H411.511C410.332 83.8608 409.375 84.817 409.375 85.9978V87.2789Z" fill="#003260"/>
<path fill-rule="evenodd" clip-rule="evenodd" d="M482.023 253.242C494.906 240.29 504.719 225.654 494.959 223.372C485.188 221.088 468.781 246.595 465.922 269.811L463.061 277.476C465.441 260.593 459.656 240.029 451.185 239.182C442.77 238.34 447.864 251.678 454.548 263.086C459.637 271.77 460.977 278.621 461.313 282.161L447.798 318.362C451.49 291.616 442.326 259.167 428.924 257.826C415.57 256.491 423.653 277.655 434.259 295.756C442.275 309.435 444.431 320.253 444.983 325.907L442.288 333.124C443.467 333.788 444.648 334.445 445.834 335.094L461.912 292.025C465.013 289.709 469.723 286.911 476.428 284.642C488.953 280.406 501.542 273.667 494.632 268.788C488.637 264.554 474.54 272.704 464.83 284.205L470.391 269.311C472.897 264.997 476.464 258.831 482.023 253.242Z" fill="#24C875"/>
<path fill-rule="evenodd" clip-rule="evenodd" d="M75.9105 84.274C77.5814 68.6319 76.2804 53.5133 68.4954 57.2418C60.7031 60.9744 63.4347 86.9481 74.0285 104.08L76.2386 110.77C68.7368 98.1501 53.7666 87.458 47.6212 91.4539C41.5155 95.4259 52.1271 101.638 62.7659 105.696C70.8633 108.785 75.457 112.663 77.5898 114.859L88.03 146.456C76.0913 126.504 52.4437 109.652 42.7214 115.976C33.0335 122.277 49.871 132.134 66.7503 138.572C79.5062 143.438 86.7876 149.54 90.2046 153.04L92.2862 159.34C93.4356 159.15 94.583 158.955 95.7293 158.751L83.3099 121.16C84.1448 117.933 85.799 113.515 89.0802 108.377C95.2068 98.7802 100.028 87.4695 92.7585 87.9178C86.449 88.3065 81.3746 101.378 81.0549 114.337L76.7601 101.336C76.1174 97.0884 75.1895 91.0255 75.9105 84.274Z" fill="#1DA058"/>
<path fill-rule="evenodd" clip-rule="evenodd" d="M395.056 296.267C395.219 297.153 395.409 298.121 395.63 299.149V299.151C397.95 309.937 403.645 327.593 416.46 331.065C416.46 331.065 409.485 294.696 434.345 285.224C459.205 275.752 456.455 266.733 455.033 250.679C453.613 234.626 448.12 231.564 465.369 216.527C482.617 201.489 479.319 179.09 479.319 179.09C479.319 179.09 462.995 204.664 445.559 205.257C428.123 205.85 425.07 220.736 425.813 231.804C426.557 242.873 411.749 244.124 403.737 250.545C395.724 256.965 394.214 290.68 394.214 290.68C394.214 290.68 394.436 292.883 395.056 296.267Z" fill="#1DA058"/>
<path fill-rule="evenodd" clip-rule="evenodd" d="M395.055 296.267C395.218 297.153 395.408 298.121 395.63 299.149C397.418 293.737 399.932 289.192 402.286 285.704C407.862 277.441 415.715 270.654 422.778 267.99C434.025 263.753 439.516 252.722 440.58 232.223C441.197 220.325 453.645 213.297 453.773 213.229C454.136 213.027 454.269 212.567 454.069 212.204C453.866 211.838 453.406 211.704 453.042 211.906C452.5 212.206 439.734 219.399 439.072 232.144C438.045 251.961 432.856 262.582 422.246 266.581C414.795 269.388 406.863 276.222 401.033 284.858C398.974 287.91 396.792 291.754 395.055 296.267Z" fill="#148243"/>
<path fill-rule="evenodd" clip-rule="evenodd" d="M119.888 330.867H137.356C127.917 329.307 104.515 319.261 102.428 299.115C99.7856 273.598 90.6986 273.917 75.3888 271.248C60.079 268.58 55.8605 272.937 46.1391 253.126C36.4178 233.317 14.7285 230.819 14.7285 230.819C14.7285 230.819 34.4961 252.388 30.7134 268.781C26.9306 285.172 40.0397 291.719 50.5374 293.78C61.0341 295.839 58.5178 309.946 62.5064 319.008C64.3268 323.143 71.7784 327.428 79.3429 330.867H119.888Z" fill="#1DA058"/>
<path fill-rule="evenodd" clip-rule="evenodd" d="M82.0517 305.747C82.8134 313.389 87.2086 322.477 93.8054 330.057C94.0374 330.323 94.2778 330.594 94.5254 330.865H96.513C95.9434 330.267 95.4053 329.675 94.9037 329.1C88.5932 321.85 84.2221 312.846 83.4979 305.602C82.3453 294.071 73.4349 286.212 54.6004 280.123C43.669 276.589 40.2165 263.244 40.1851 263.108C40.0869 262.719 39.6919 262.481 39.3032 262.578C38.9113 262.675 38.6731 263.071 38.7702 263.46C38.9155 264.04 42.4422 277.723 54.1521 281.508C72.3596 287.394 80.9639 294.869 82.0517 305.747Z" fill="#1DA058"/>
<path fill-rule="evenodd" clip-rule="evenodd" d="M129.31 283.51C128.94 284.75 128.521 286.1 128.048 287.534L128.047 287.537C123.08 302.568 112.891 327.884 94.0768 330.867C94.0768 330.867 108.968 279.052 74.9591 261.718C40.9507 244.383 46.2592 231.939 50.7546 209.256C55.249 186.572 63.5565 183.05 41.2611 158.946C18.9657 134.842 27.1154 103.395 27.1154 103.395C27.1154 103.395 46.4723 142.388 71.2537 145.915C96.0361 149.441 98.1041 171.145 95.3422 186.822C92.5804 202.497 113.512 206.559 123.955 216.95C134.398 227.34 131.37 275.669 131.37 275.669C131.37 275.669 130.715 278.779 129.31 283.51Z" fill="#1DA058"/>
<path fill-rule="evenodd" clip-rule="evenodd" d="M129.309 283.51C128.939 284.749 128.52 286.1 128.047 287.533C126.328 279.538 123.44 272.667 120.619 267.329C113.933 254.685 103.773 243.796 94.1062 238.91C78.7149 231.136 72.5757 214.556 74.209 185.15C75.1589 168.08 58.4812 156.14 58.3088 156.023C57.8218 155.68 57.7027 155.003 58.0465 154.515C58.3903 154.024 59.0664 153.906 59.5544 154.25C60.2827 154.761 77.3888 166.985 76.3731 185.268C74.7931 213.695 80.5634 229.645 95.0822 236.98C105.282 242.132 115.546 253.099 122.534 266.315C125.005 270.986 127.525 276.805 129.309 283.51Z" fill="#1DA058"/>
<path fill-rule="evenodd" clip-rule="evenodd" d="M474.862 336.752V337.516C474.862 341.919 471.29 345.491 466.883 345.491H53.1324C48.7258 345.491 45.1572 341.919 45.1572 337.516V336.752C45.1572 332.349 48.7258 328.777 53.1324 328.777H466.883C471.29 328.777 474.862 332.349 474.862 336.752Z" fill="#70B2DD"/>
<path fill-rule="evenodd" clip-rule="evenodd" d="M474.862 336.752V337.133H45.1572V336.752C45.1572 332.349 48.7258 328.777 53.1324 328.777H466.883C471.29 328.777 474.862 332.349 474.862 336.752Z" fill="#ABDAF7"/>
<path fill-rule="evenodd" clip-rule="evenodd" d="M142.8 318.681C142.859 322.621 142.929 326.72 143.014 330.865H181.009C181.083 326.327 181.138 321.978 181.18 317.897C181.294 306.839 181.307 297.738 181.298 292.082C181.294 288.069 181.276 285.793 181.276 285.793L142.533 285.382C142.533 285.382 142.533 288.729 142.562 294.204C142.588 300.289 142.656 309 142.8 318.681Z" fill="#003260"/>
<path fill-rule="evenodd" clip-rule="evenodd" d="M142.561 294.205C142.586 300.29 142.655 309.001 142.8 318.682C154.734 319.593 167.819 319.602 181.178 317.898C181.292 306.84 181.305 297.739 181.296 292.083L142.561 294.205Z" fill="#002744"/>
<path fill-rule="evenodd" clip-rule="evenodd" d="M94.9172 309.946C94.96 316.14 95.0332 323.234 95.1565 330.867H133.155C133.249 326.398 133.324 321.982 133.385 317.764C133.516 308.709 133.584 300.557 133.617 294.697C133.647 288.93 133.647 285.384 133.647 285.384L94.8879 285.795C94.8879 285.795 94.8576 289.905 94.866 296.819C94.866 300.476 94.8827 304.913 94.9172 309.946Z" fill="#003260"/>
<path fill-rule="evenodd" clip-rule="evenodd" d="M94.8665 296.82C94.8665 300.476 94.8832 304.913 94.9177 309.946C102.634 312.221 116.445 315.76 133.385 317.763C133.517 308.709 133.585 300.556 133.618 294.697L94.8665 296.82Z" fill="#002744"/>
<path fill-rule="evenodd" clip-rule="evenodd" d="M158.56 81.5383C158.56 81.5383 163.087 77.2111 162.788 71.9956C162.757 71.4627 162.64 70.959 162.598 70.4637C161.94 66.6465 161.604 66.0456 161.026 64.6537C160.419 63.5032 159.792 63.4969 158.56 60.3495C156.443 54.9376 150.148 51.6387 146.695 52.298C143.245 52.9585 135.957 39.4962 126.073 41.8724C116.189 44.2476 117.049 56.9178 112.791 58.7653C108.534 60.6128 109.722 68.1355 111.966 69.8514C114.209 71.5672 115.159 78.4619 116.422 78.3062C117.684 78.1515 158.56 81.5383 158.56 81.5383Z" fill="#43190F"/>
<path fill-rule="evenodd" clip-rule="evenodd" d="M117.468 81.3984C117.468 81.3984 113.629 76.2801 110.775 80.5122C107.92 84.7454 111.956 97.2453 118.943 94.194L117.468 81.3984Z" fill="#722D1D"/>
<path fill-rule="evenodd" clip-rule="evenodd" d="M117.417 90.3316C117.159 90.3316 116.922 90.1613 116.849 89.9001C115.766 86.041 111.768 84.4767 111.728 84.461C111.423 84.345 111.27 84.0044 111.386 83.7003C111.501 83.3952 111.841 83.2415 112.146 83.3565C112.334 83.4276 116.739 85.1371 117.987 89.5814C118.075 89.8959 117.891 90.2209 117.577 90.3097C117.524 90.3243 117.471 90.3316 117.417 90.3316Z" fill="#EA5143"/>
<path fill-rule="evenodd" clip-rule="evenodd" d="M113.382 88.3876C113.273 88.3876 113.162 88.3573 113.062 88.2936C112.79 88.117 112.709 87.7512 112.886 87.4775C112.916 87.4315 113.622 86.3531 115.102 85.6906C115.4 85.5568 115.75 85.6906 115.884 85.9884C116.017 86.2862 115.884 86.6352 115.585 86.769C114.442 87.281 113.884 88.1086 113.88 88.117C113.767 88.2925 113.577 88.3876 113.382 88.3876Z" fill="#EA5143"/>
<path fill-rule="evenodd" clip-rule="evenodd" d="M157.029 81.3984C157.029 81.3984 160.867 76.2801 163.72 80.5122C166.575 84.7454 162.54 97.2453 155.552 94.194L157.029 81.3984Z" fill="#753121"/>
<path fill-rule="evenodd" clip-rule="evenodd" d="M157.076 90.3316C157.334 90.3316 157.571 90.1613 157.644 89.9001C158.727 86.041 162.725 84.4767 162.766 84.461C163.07 84.345 163.224 84.0044 163.108 83.7003C162.993 83.3952 162.652 83.2415 162.348 83.3565C162.161 83.4276 157.754 85.1371 156.507 89.5814C156.419 89.8959 156.603 90.2209 156.916 90.3097C156.969 90.3243 157.023 90.3316 157.076 90.3316Z" fill="#AC6352"/>
<path fill-rule="evenodd" clip-rule="evenodd" d="M161.113 88.3876C161.222 88.3876 161.334 88.3573 161.433 88.2936C161.707 88.117 161.786 87.7512 161.61 87.4775C161.579 87.4315 160.873 86.3531 159.393 85.6906C159.097 85.5568 158.745 85.6906 158.612 85.9884C158.479 86.2862 158.612 86.6352 158.911 86.769C160.055 87.281 160.612 88.1086 160.616 88.117C160.73 88.2925 160.919 88.3876 161.113 88.3876Z" fill="#AC6352"/>
<path fill-rule="evenodd" clip-rule="evenodd" d="M146.697 104.797V117.228C146.697 117.228 142.989 123.56 137.976 123.99C132.968 124.428 128.518 118.54 128.518 118.54V105.672L146.697 104.797Z" fill="#753121"/>
<path fill-rule="evenodd" clip-rule="evenodd" d="M146.697 104.797V110.314C143.333 114.046 137.358 114.978 128.518 113.673V105.672L146.697 104.797Z" fill="#E5AB7F"/>
<path fill-rule="evenodd" clip-rule="evenodd" d="M159.803 72.8719C159.572 77.7028 159.111 83.7437 158.191 88.5746C157.96 89.7795 157.7 90.9132 157.411 91.929C154.795 101.089 148.251 116.798 129.932 110.255C121.842 107.366 118.091 98.3544 116.419 89.1891C115.286 82.9642 115.115 76.6756 115.198 72.1812C115.286 67.5927 117.79 63.3993 121.782 61.138C132.595 55.0072 144.005 57.2925 151.517 60.1808C156.732 62.183 160.069 67.3033 159.803 72.8719Z" fill="#753121"/>
<path fill-rule="evenodd" clip-rule="evenodd" d="M136.868 95.9175C149.142 93.8108 146.948 100.997 146.869 101.255V101.258L146.865 101.262C146.033 102.055 145.187 102.72 144.343 103.175C139.589 105.744 139.073 105.357 137.196 105.44C135.288 105.531 132.655 104.965 129.982 103.472C129.151 103.004 127.908 102.102 126.546 100.859C126.546 100.859 124.617 94.2664 136.868 95.9175Z" fill="#753121"/>
<path fill-rule="evenodd" clip-rule="evenodd" d="M116.423 89.1871C116.423 89.1871 118.2 99.7778 119.879 103.639C121.562 107.499 126.147 108.227 127.87 111.49C130.326 116.142 134.071 119.83 140.231 117.583C145.357 115.714 145.125 113.093 147.995 111.064C152.915 107.591 155.353 103.77 155.553 100.601C155.75 97.434 158.192 88.5737 158.192 88.5737L155.553 88.3877C155.553 88.3877 154.047 91.5027 151.834 94.9354C149.613 90.0586 138.911 93.6052 138.911 93.6052L136.868 94.2667L134.769 93.6052C134.769 93.6052 123.941 90.208 121.803 95.3242C120.492 93.321 119.428 91.068 118.944 88.6803L116.423 89.1871Z" fill="#43190F"/>
<path fill-rule="evenodd" clip-rule="evenodd" d="M129.491 83.0205C129.491 84.3476 128.808 85.4229 127.964 85.4229C127.12 85.4229 126.436 84.3476 126.436 83.0205C126.436 81.6934 127.12 80.6182 127.964 80.6182C128.808 80.6182 129.491 81.6934 129.491 83.0205Z" fill="#1E0803"/>
<path fill-rule="evenodd" clip-rule="evenodd" d="M147.65 83.0205C147.65 84.3476 146.966 85.4229 146.122 85.4229C145.279 85.4229 144.594 84.3476 144.594 83.0205C144.594 81.6934 145.279 80.6182 146.122 80.6182C146.966 80.6182 147.65 81.6934 147.65 83.0205Z" fill="#1E0803"/>
<path fill-rule="evenodd" clip-rule="evenodd" d="M152.135 75.1101C152.135 75.1101 145.822 72.6158 140.963 74.7151L141.448 77.4184C141.448 77.4184 148.582 76.8155 152.176 78.2711C152.499 77.2303 152.546 76.1791 152.135 75.1101Z" fill="#38130A"/>
<path fill-rule="evenodd" clip-rule="evenodd" d="M122.123 75.1219C122.123 75.1219 128.481 72.6088 133.378 74.7238L132.888 77.447C132.888 77.447 125.703 76.8388 122.082 78.3059C121.757 77.2578 121.709 76.1993 122.123 75.1219Z" fill="#38130A"/>
<path fill-rule="evenodd" clip-rule="evenodd" d="M137.453 93.0917C138.449 93.0917 139.437 92.704 139.59 92.6413C139.892 92.518 140.037 92.1742 139.913 91.8722C139.791 91.5702 139.445 91.425 139.144 91.5483C138.61 91.7646 137.331 92.1042 136.776 91.7719C136.669 91.7082 136.522 91.5807 136.485 91.2223C136.272 89.1595 136.836 82.247 136.842 82.1781C136.868 81.8531 136.627 81.5678 136.302 81.5407C135.976 81.5135 135.692 81.7559 135.664 82.0809C135.641 82.3693 135.086 89.1731 135.31 91.3435C135.395 92.1606 135.823 92.5786 136.169 92.7855C136.547 93.0123 137.001 93.0917 137.453 93.0917Z" fill="#8C4F41"/>
<path fill-rule="evenodd" clip-rule="evenodd" d="M129.924 97.1006C130.372 99.3567 131.862 103.506 136.882 103.506C141.915 103.506 143.326 99.714 143.81 97.1006H129.924Z" fill="white"/>
<path fill-rule="evenodd" clip-rule="evenodd" d="M159.803 72.8719C159.572 77.7028 159.111 83.7437 158.191 88.5746L155.551 88.3876C155.551 88.3876 156.191 84.3091 156.485 81.6517C156.78 78.9944 157.283 74.0266 155.015 73.4069C152.753 72.7925 154.08 67.1257 150.932 64.6689C147.785 62.206 140.793 60.0387 136.15 62.8977C131.51 65.7494 126.229 64.1726 124.091 64.6689C121.947 65.159 119.042 68.1121 119.828 70.8698C120.619 73.6222 118.256 75.2994 117.684 78.1511C117.112 81.0038 118.942 88.6812 118.942 88.6812L116.419 89.1891C115.286 82.9642 115.115 76.6756 115.198 72.1812C115.286 67.5927 117.79 63.3993 121.782 61.138C132.595 55.0072 144.005 57.2925 151.517 60.1808C156.732 62.183 160.069 67.3033 159.803 72.8719Z" fill="#43190F"/>
<path fill-rule="evenodd" clip-rule="evenodd" d="M189.304 304.474C177.355 307.501 165.406 309.458 153.448 310.359C152.907 310.397 152.369 310.437 151.826 310.474C150.183 310.584 148.539 310.677 146.896 310.748C138.763 311.098 130.628 310.962 122.492 310.335C120.852 310.208 119.213 310.063 117.573 309.895C117.049 309.844 116.524 309.789 115.998 309.728C106.285 308.675 96.5739 306.922 86.8526 304.474C86.7554 295.52 86.8662 267.21 87.4169 236.509C87.4806 232.819 87.5506 229.095 87.6322 225.365C88.4932 184.903 90.1557 143.831 93.1454 139.717C96.0107 135.779 104.646 130.775 112.904 126.262C113.395 125.992 113.888 125.724 114.378 125.458C116.235 124.45 118.05 123.472 119.755 122.545C123.414 120.554 126.57 118.784 128.519 117.417V118.542C128.519 118.542 132.964 124.426 137.973 123.991C142.54 123.598 146.016 118.323 146.607 117.377C148.761 118.895 152.63 120.986 157.115 123.357C158.364 124.017 159.654 124.694 160.971 125.392C161.456 125.647 161.943 125.905 162.433 126.167C171.564 131.01 181.408 136.469 184.364 140.528C184.584 140.829 184.796 141.331 184.996 142.021C186.745 147.942 187.83 167.589 188.491 191.383C188.493 191.467 188.496 191.553 188.499 191.641C188.528 192.602 188.551 193.571 188.575 194.546C188.581 194.673 188.583 194.801 188.586 194.931C188.802 203.277 188.965 212.063 189.091 220.891C189.103 221.591 189.114 222.292 189.122 222.992C189.125 223.345 189.131 223.693 189.134 224.045C189.162 225.784 189.181 227.522 189.197 229.253C189.215 230.53 189.231 231.805 189.24 233.082C189.571 264.992 189.436 295.093 189.304 304.474Z" fill="#1976D3"/>
<path fill-rule="evenodd" clip-rule="evenodd" d="M188.576 194.545C185.7 189.849 182.613 185.056 179.706 180.815C179.698 180.805 179.69 180.794 179.684 180.784C178.462 179.003 177.275 177.323 176.145 175.788C176.127 175.759 176.108 175.733 176.087 175.709C175.734 175.227 175.384 174.758 175.041 174.302C174.986 174.224 174.944 174.141 174.918 174.054L174.915 174.052C174.823 173.744 174.925 173.401 175.197 173.197C175.547 172.93 176.045 172.999 176.309 173.349C179.801 177.976 184.267 184.629 188.492 191.382C188.494 191.467 188.497 191.553 188.5 191.64C188.529 192.602 188.553 193.57 188.576 194.545Z" fill="#1976D3"/>
<path fill-rule="evenodd" clip-rule="evenodd" d="M184.364 140.528C184.364 140.528 202.506 172.889 213.492 189.622C213.492 189.622 219.739 183.883 227.863 176.206C236.672 167.882 248.719 153.969 248.719 153.969L255.386 161.876C255.386 161.876 228.317 210.588 216.176 216.709C204.035 222.831 181.662 179.501 181.662 179.501L184.364 140.528Z" fill="#1976D3"/>
<path fill-rule="evenodd" clip-rule="evenodd" d="M108.187 269.995C108.176 269.995 108.167 269.995 108.157 269.995C107.707 269.978 107.356 269.601 107.372 269.15C108.317 242.489 94.4924 233.85 94.3523 233.767C93.9667 233.535 93.8403 233.034 94.0723 232.649C94.3032 232.264 94.8017 232.137 95.1883 232.368C95.3419 232.459 98.9962 234.679 102.536 240.368C105.769 245.561 109.513 254.781 109.001 269.209C108.985 269.649 108.623 269.995 108.187 269.995Z" fill="#1976D3"/>
<path fill-rule="evenodd" clip-rule="evenodd" d="M167.169 244.875C166.748 244.875 166.391 244.551 166.358 244.124C165.92 238.508 167.769 234.413 170.11 229.229C170.796 227.712 171.503 226.143 172.23 224.385C176.773 213.363 174.49 200.762 174.466 200.636C174.382 200.194 174.675 199.767 175.117 199.685C175.56 199.601 175.985 199.894 176.069 200.336C176.168 200.87 178.463 213.543 173.735 225.006C173.001 226.79 172.286 228.37 171.596 229.9C169.263 235.066 167.579 238.799 167.982 243.996C168.017 244.446 167.682 244.838 167.234 244.873C167.212 244.874 167.191 244.875 167.169 244.875Z" fill="#1976D3"/>
<path fill-rule="evenodd" clip-rule="evenodd" d="M119.756 122.545C120.104 125.17 120.614 128.575 121.173 132.443C121.343 133.591 121.513 134.783 121.688 136.007C122.254 140.002 122.84 144.349 123.339 148.743C123.474 149.924 123.6 151.108 123.718 152.288C124.158 156.639 124.491 160.962 124.61 164.981C124.649 166.196 124.665 167.384 124.657 168.537C124.649 171.605 124.479 174.424 124.107 176.835C123.87 178.36 123.659 179.849 123.474 181.305C123.318 182.513 123.18 183.7 123.057 184.869C122.582 189.402 122.345 193.622 122.277 197.602C122.259 198.81 122.254 199.993 122.265 201.153C122.301 205.671 122.558 209.88 122.93 213.886C123.042 215.086 123.165 216.266 123.291 217.43C123.779 221.809 124.373 225.979 124.931 230.1C125.092 231.28 125.251 232.455 125.405 233.632C125.647 235.516 125.876 237.401 126.075 239.298C126.284 241.308 126.419 243.66 126.482 246.27C126.515 247.41 126.529 248.602 126.534 249.833C126.55 253.733 126.45 258.053 126.268 262.57C126.221 263.75 126.17 264.945 126.11 266.153C125.909 270.35 125.643 274.666 125.346 278.926C125.26 280.126 125.172 281.318 125.081 282.505C124.752 286.94 124.388 291.26 124.019 295.279C123.909 296.498 123.798 297.689 123.687 298.845C123.263 303.268 122.852 307.2 122.492 310.336C130.628 310.962 138.764 311.099 146.897 310.747C147.086 307.41 147.605 302.025 148.116 295.686C148.21 294.526 148.302 293.33 148.393 292.11C148.698 288.08 148.975 283.773 149.158 279.425C149.209 278.233 149.253 277.038 149.284 275.845C149.407 271.507 149.411 267.195 149.225 263.152C149.169 261.924 149.097 260.725 149.002 259.558C148.907 258.361 148.793 257.197 148.654 256.073C148.263 252.898 148.112 249.849 148.132 246.832C148.136 245.637 148.167 244.448 148.223 243.257C148.409 239.123 148.861 234.982 149.384 230.583C149.522 229.414 149.668 228.227 149.815 227.015C150.286 223.104 150.777 218.954 151.165 214.413C151.268 213.249 151.359 212.058 151.445 210.838C151.715 206.941 151.898 202.756 151.925 198.196C151.932 197.02 151.929 195.82 151.913 194.593C151.869 190.645 151.703 186.42 151.383 181.872C151.355 181.467 151.327 181.06 151.296 180.648C151.235 179.852 151.184 179.048 151.149 178.245C150.94 174.095 150.995 169.827 151.228 165.571C151.292 164.375 151.37 163.179 151.462 161.984C151.79 157.724 152.269 153.503 152.824 149.457C152.986 148.253 153.156 147.061 153.331 145.889C153.996 141.454 154.712 137.282 155.369 133.551C155.588 132.325 155.797 131.145 155.995 130.02C156.443 127.502 156.83 125.258 157.115 123.357C152.629 120.985 148.762 118.895 146.607 117.377C146.018 118.324 142.541 123.598 137.973 123.99C132.964 124.426 128.518 118.542 128.518 118.542V117.417C126.57 118.784 123.414 120.553 119.756 122.545Z" fill="white"/>
<path fill-rule="evenodd" clip-rule="evenodd" d="M121.174 132.443C121.344 133.591 121.514 134.783 121.688 136.006C126.183 136.11 131.46 135.436 137.82 133.967C144.629 132.399 150.635 132.673 155.371 133.552C155.589 132.324 155.798 131.144 155.996 130.02C150.865 129.074 144.391 128.8 137.019 130.499C130.743 131.944 125.517 132.609 121.174 132.443Z" fill="#DCF2FF"/>
<path fill-rule="evenodd" clip-rule="evenodd" d="M123.34 148.743C123.474 149.923 123.601 151.107 123.719 152.287C127.755 152.18 132.394 151.507 137.819 150.252C143.453 148.953 148.544 148.922 152.824 149.456C152.986 148.252 153.157 147.061 153.331 145.888C148.692 145.315 143.168 145.362 137.019 146.78C131.754 147.995 127.224 148.661 123.34 148.743Z" fill="#DCF2FF"/>
<path fill-rule="evenodd" clip-rule="evenodd" d="M124.609 164.98C124.649 166.196 124.666 167.384 124.657 168.536C128.469 168.358 132.81 167.693 137.819 166.536C142.767 165.396 147.296 165.233 151.229 165.571C151.291 164.374 151.37 163.179 151.462 161.983C147.233 161.634 142.359 161.833 137.018 163.064C132.318 164.149 128.204 164.794 124.609 164.98Z" fill="#DCF2FF"/>
<path fill-rule="evenodd" clip-rule="evenodd" d="M123.058 184.867C127.247 184.82 132.093 184.139 137.819 182.82C142.831 181.664 147.416 181.514 151.383 181.87C151.356 181.466 151.329 181.058 151.296 180.647C151.237 179.85 151.185 179.047 151.15 178.243C146.992 177.931 142.23 178.145 137.019 179.348C131.813 180.551 127.331 181.209 123.474 181.304C123.319 182.512 123.181 183.699 123.058 184.867Z" fill="#DCF2FF"/>
<path fill-rule="evenodd" clip-rule="evenodd" d="M122.264 201.152C126.632 201.188 131.728 200.51 137.818 199.105C143.071 197.894 147.843 197.779 151.925 198.195C151.932 197.018 151.929 195.818 151.912 194.592C147.581 194.191 142.552 194.358 137.017 195.632C131.264 196.96 126.394 197.628 122.277 197.6C122.257 198.808 122.253 199.992 122.264 201.152Z" fill="#DCF2FF"/>
<path fill-rule="evenodd" clip-rule="evenodd" d="M122.932 213.886C123.042 215.085 123.166 216.265 123.292 217.429C127.426 217.362 132.2 216.685 137.819 215.39C142.748 214.253 147.257 214.08 151.167 214.412C151.269 213.248 151.36 212.057 151.447 210.837C147.218 210.488 142.352 210.687 137.019 211.918C131.571 213.173 126.908 213.842 122.932 213.886Z" fill="#DCF2FF"/>
<path fill-rule="evenodd" clip-rule="evenodd" d="M124.932 230.1C125.094 231.28 125.252 232.456 125.406 233.632C129.037 233.407 133.131 232.757 137.819 231.676C142.016 230.706 145.907 230.441 149.384 230.583C149.523 229.416 149.669 228.228 149.815 227.015C145.984 226.842 141.679 227.126 137.019 228.204C132.453 229.253 128.447 229.894 124.932 230.1Z" fill="#DCF2FF"/>
<path fill-rule="evenodd" clip-rule="evenodd" d="M126.483 246.268C126.515 247.408 126.531 248.6 126.535 249.831C129.88 249.55 133.614 248.929 137.819 247.955C141.521 247.104 144.985 246.795 148.133 246.83C148.137 245.635 148.169 244.447 148.224 243.255C144.807 243.22 141.046 243.556 137.019 244.486C133.115 245.385 129.615 245.983 126.483 246.268Z" fill="#DCF2FF"/>
<path fill-rule="evenodd" clip-rule="evenodd" d="M126.111 266.152C129.564 265.887 133.432 265.249 137.819 264.24C141.948 263.289 145.785 263.016 149.226 263.151C149.17 261.923 149.098 260.723 149.003 259.556C145.38 259.453 141.354 259.769 137.019 260.767C133.024 261.69 129.456 262.296 126.269 262.569C126.221 263.749 126.171 264.944 126.111 266.152Z" fill="#DCF2FF"/>
<path fill-rule="evenodd" clip-rule="evenodd" d="M125.081 282.505C128.791 282.295 132.991 281.637 137.818 280.526C141.923 279.579 145.736 279.302 149.158 279.424C149.209 278.233 149.253 277.036 149.284 275.845C145.59 275.719 141.469 276.027 137.018 277.053C132.635 278.067 128.762 278.696 125.346 278.926C125.259 280.125 125.171 281.317 125.081 282.505Z" fill="#DCF2FF"/>
<path fill-rule="evenodd" clip-rule="evenodd" d="M123.687 298.845C127.73 298.742 132.378 298.065 137.818 296.809C141.512 295.959 144.972 295.646 148.116 295.685C148.211 294.525 148.303 293.33 148.394 292.11C144.929 292.059 141.113 292.391 137.018 293.338C132.057 294.482 127.75 295.135 124.019 295.277C123.908 296.497 123.798 297.689 123.687 298.845Z" fill="#DCF2FF"/>
<path fill-rule="evenodd" clip-rule="evenodd" d="M151.827 310.475C152.369 310.439 152.908 310.4 153.45 310.36C156.657 291.506 154.808 263.83 154.119 255.349C153.407 246.544 154.776 235.22 157.876 224.292C160.284 215.803 158.808 196.122 157.624 180.308C157.291 175.87 156.974 171.677 156.788 168.232C156.183 157.099 160.212 136.494 162.434 126.168C161.943 125.907 161.457 125.65 160.973 125.393C158.748 135.615 154.57 156.687 155.203 168.32C155.394 171.78 155.711 175.98 156.044 180.427C157.219 196.118 158.684 215.641 156.356 223.857C153.204 234.962 151.815 246.488 152.544 255.476C153.228 263.969 155.09 291.818 151.827 310.475Z" fill="#1976D3"/>
<path fill-rule="evenodd" clip-rule="evenodd" d="M118.976 233.757C120.861 245.35 120.266 252.881 119.578 261.595C119.356 264.414 119.127 267.324 118.964 270.538C118.462 280.628 116.755 300.943 115.998 309.728C116.525 309.787 117.048 309.843 117.574 309.894C118.331 301.109 120.042 280.743 120.548 270.618C120.706 267.427 120.936 264.525 121.158 261.721C121.85 252.904 122.452 245.286 120.536 233.503C120.128 230.973 119.693 228.408 119.261 225.854C117.126 213.22 114.917 200.154 115.963 193.894C116.216 192.366 116.541 190.632 116.89 188.795C118.307 181.24 120.077 171.841 119.519 163.684C118.964 155.6 115.65 133.709 114.38 125.458C113.889 125.723 113.398 125.991 112.902 126.261C114.228 134.888 117.4 155.94 117.939 163.791C118.48 171.745 116.734 181.038 115.334 188.501C114.985 190.347 114.656 192.089 114.399 193.633C113.314 200.154 115.444 212.764 117.701 226.119C118.132 228.669 118.564 231.231 118.976 233.757Z" fill="#1976D3"/>
<path fill-rule="evenodd" clip-rule="evenodd" d="M87.8109 153.163C87.8109 153.163 71.6798 206.957 67.6849 226.128C63.69 245.299 63.3817 285.153 63.3817 285.153C63.3817 285.153 56.3292 299.792 56.1621 306.307C55.9844 313.252 59.6303 318.778 59.2154 323.323C58.7985 327.869 64.3316 325.401 62.7694 316.194C61.2061 306.988 65.6409 298.651 67.5543 298.918C69.4686 299.186 65.9711 308.97 67.6713 312.495C69.3704 316.021 71.5701 309.172 73.7582 305.016C76.0289 300.701 75.8962 291.286 74.8617 284.564C73.8293 277.844 86.0125 237.019 86.0711 225.19L101.499 173.057C101.499 173.057 96.4026 151.295 87.8109 153.163Z" fill="#753121"/>
<path fill-rule="evenodd" clip-rule="evenodd" d="M103.474 171.747C102.928 175.204 101.015 181.138 98.5445 188.605V188.61C98.3344 189.24 98.1213 189.881 97.9071 190.534C97.8945 190.562 97.883 190.593 97.8757 190.625C97.2581 192.482 96.6123 194.426 95.9467 196.437C95.9436 196.449 95.9394 196.461 95.9352 196.473C93.1995 204.779 90.1712 214.282 87.6288 224.045C86.7541 227.387 85.938 230.765 85.2128 234.13C84.287 238.426 83.5032 242.71 82.9296 246.903C80.8658 262.008 76.9231 281.139 76.9231 281.139C71.1382 283.514 62.095 280.379 62.095 280.379C62.095 280.379 61.862 252.826 63.1515 242.12C64.7472 228.884 66.7786 219.461 69.2969 208.644C76.2261 178.874 88.4209 149.745 91.7658 142.021C92.0312 141.403 92.2412 140.924 92.3886 140.591H95.2664C100.931 144.19 104.95 162.435 103.474 171.747Z" fill="#1976D3"/>
<path fill-rule="evenodd" clip-rule="evenodd" d="M61.6255 274.861L62.079 281.201C62.079 281.201 70.677 283.995 77.1223 282.028L78.8267 276.373C72.6196 276.702 66.8869 276.549 61.6255 274.861Z" fill="#009CF8"/>
<path fill-rule="evenodd" clip-rule="evenodd" d="M98.5465 188.606V188.61C98.5465 188.701 98.5298 188.792 98.4984 188.883C98.3051 189.418 98.1066 189.968 97.9091 190.534C97.8965 190.562 97.8851 190.594 97.8767 190.625C97.2434 192.423 96.5987 194.379 95.9487 196.438C95.9456 196.45 95.9414 196.461 95.9372 196.474C92.5672 207.179 89.1429 220.649 87.5671 229.252C87.5827 227.523 87.6026 225.784 87.6308 224.046C86.7562 227.388 85.94 230.765 85.2148 234.13C85.5398 230.975 86.4427 226.247 87.6747 220.89C90.1607 210.05 93.9769 196.623 97.0094 188.341C97.1609 187.929 97.6155 187.719 98.0282 187.869C98.349 187.989 98.5465 188.285 98.5465 188.606Z" fill="#056CC9"/>
<path fill-rule="evenodd" clip-rule="evenodd" d="M276.541 328.725C276.339 325.377 276.149 322.189 275.976 319.235C275.265 307.16 274.809 298.917 274.809 298.917L279.538 298.705L282.205 298.585L314.357 297.156C314.357 297.156 314.944 306.375 315.632 319.912C315.774 322.683 315.92 325.635 316.066 328.725H276.541Z" fill="#003260"/>
<path fill-rule="evenodd" clip-rule="evenodd" d="M279.538 298.705L274.809 298.917C274.809 298.917 275.265 307.16 275.976 319.235C288.329 320.266 301.817 320.685 315.632 319.912C314.944 306.375 314.357 297.156 314.357 297.156L282.205 298.585L279.538 298.705Z" fill="#002744"/>
<path fill-rule="evenodd" clip-rule="evenodd" d="M266.178 328.725H226.655C226.8 325.635 226.946 322.683 227.087 319.912C227.776 306.375 228.362 297.156 228.362 297.156L260.516 298.585L263.181 298.705L267.911 298.917C267.911 298.917 267.454 307.16 266.745 319.235C266.57 322.189 266.38 325.377 266.178 328.725Z" fill="#003260"/>
<path fill-rule="evenodd" clip-rule="evenodd" d="M263.181 298.705L267.911 298.917C267.911 298.917 267.454 307.16 266.745 319.235C254.39 320.266 240.903 320.685 227.087 319.912C227.776 306.375 228.362 297.156 228.362 297.156L260.516 298.585L263.181 298.705Z" fill="#002744"/>
<path fill-rule="evenodd" clip-rule="evenodd" d="M258.822 328.725C259.57 315.782 260.185 304.681 260.518 298.587L263.185 298.706C262.851 304.774 262.24 315.825 261.494 328.725H258.822Z" fill="#001336"/>
<path fill-rule="evenodd" clip-rule="evenodd" d="M223.795 292.692C223.795 296.491 223.805 299.504 223.83 301.536C232.829 303.958 241.82 305.716 250.812 306.79C251.05 306.819 251.29 306.849 251.532 306.877C251.933 306.924 252.331 306.973 252.726 307.017C252.827 307.025 252.926 307.037 253.028 307.046C254.59 307.214 256.141 307.365 257.703 307.496C260.945 307.763 265.66 307.993 268.901 308.083L271.415 293.107L273.932 308.083C275.79 308.053 279.039 307.996 280.898 307.911C281.581 307.877 282.254 307.844 282.931 307.801C283.535 307.771 284.151 307.732 284.757 307.688C285.034 307.673 285.309 307.655 285.586 307.635C286.102 307.598 286.61 307.56 287.127 307.519C298.492 306.601 309.849 304.611 321.208 301.536C321.265 297.06 321.324 287.949 321.339 276.19C321.339 275.546 321.342 274.891 321.339 274.229C321.352 261.262 321.304 245.348 321.149 228.959C321.135 227.664 321.12 226.365 321.105 225.064C321.091 223.311 321.071 221.545 321.047 219.773C321.043 219.415 321.04 219.061 321.033 218.704C321.027 217.992 321.019 217.278 321.004 216.567C320.99 215.529 320.975 214.496 320.96 213.464C320.926 211.115 320.893 208.768 320.854 206.436C320.307 173.902 319.21 143.998 317.116 136.389C316.92 135.688 316.718 135.174 316.512 134.87C316.288 134.533 316.011 134.187 315.703 133.836C315.314 133.392 314.861 132.936 314.353 132.471C310.871 129.264 304.824 125.541 298.696 122.004C297.985 121.594 297.265 121.181 296.552 120.775C296.444 120.717 279.898 115.135 279.792 115.071L262.484 116.282C260.404 117.505 244.03 123.069 242.023 124.321C241.428 124.693 240.841 125.064 240.266 125.433C235.555 128.472 231.556 131.484 229.808 134.048C227.29 137.754 225.765 170.971 224.885 207.11C224.862 207.941 224.841 208.774 224.82 209.605C224.731 213.427 224.646 217.272 224.571 221.111C224.492 224.904 224.426 228.692 224.362 232.447C224.26 238.596 224.172 244.651 224.1 250.48C224.092 251.143 224.086 251.799 224.077 252.458C224.007 258.143 223.955 263.593 223.911 268.682C223.905 269.35 223.904 270.006 223.898 270.66C223.839 278.304 223.805 285.065 223.801 290.497V290.502C223.795 291.261 223.795 291.987 223.795 292.692Z" fill="#43A5FB"/>
<path fill-rule="evenodd" clip-rule="evenodd" d="M268.9 255.901C268.9 257.29 270.026 258.417 271.414 258.417C272.803 258.417 273.93 257.29 273.93 255.901C273.93 254.513 272.803 253.386 271.414 253.386C270.026 253.386 268.9 254.513 268.9 255.901Z" fill="#015288"/>
<path fill-rule="evenodd" clip-rule="evenodd" d="M268.9 275.948C268.9 277.337 270.026 278.463 271.414 278.463C272.803 278.463 273.93 277.337 273.93 275.948C273.93 274.559 272.803 273.433 271.414 273.433C270.026 273.433 268.9 274.559 268.9 275.948Z" fill="#015288"/>
<path fill-rule="evenodd" clip-rule="evenodd" d="M312.934 131.25C312.934 131.25 336.1 146.067 346.662 149.328L338.62 178.34C338.62 178.34 331.879 174.712 319.893 169.619L312.934 131.25Z" fill="#43A5FB"/>
<path fill-rule="evenodd" clip-rule="evenodd" d="M232.361 131.25C232.361 131.25 200.682 147.404 190.12 150.664C194.159 157.951 197.868 164.086 203.429 173.636C203.429 173.636 215.537 170.444 227.524 165.351L232.361 131.25Z" fill="#43A5FB"/>
<path fill-rule="evenodd" clip-rule="evenodd" d="M356.86 179.093L342.583 231.002L342.302 231.95C342.302 232.184 342.295 232.428 342.287 232.687C341.766 245.27 330.198 284.245 331.2 290.767C332.223 297.428 332.352 306.753 330.106 311.029C327.938 315.145 325.759 321.931 324.074 318.439C322.39 314.943 325.856 305.253 323.961 304.989C322.062 304.72 317.669 312.982 319.22 322.102C320.768 331.223 315.285 333.666 315.7 329.165C316.11 324.659 312.498 319.185 312.674 312.307C312.842 305.852 319.825 291.35 319.825 291.35C319.825 291.35 320.13 251.871 324.088 232.88C328.048 213.889 343.779 154.241 343.779 154.241C352.666 163.664 356.86 179.093 356.86 179.093Z" fill="#FFC99C"/>
<path fill-rule="evenodd" clip-rule="evenodd" d="M342.576 231.031L342.303 231.947C342.303 232.174 342.295 232.409 342.288 232.661C339.527 231.712 336.876 230.91 334.922 230.541C334.484 230.459 334.189 230.034 334.274 229.592C334.355 229.143 334.78 228.85 335.222 228.943C337.208 229.32 339.84 230.099 342.576 231.031Z" fill="#FB9E82"/>
<path fill-rule="evenodd" clip-rule="evenodd" d="M338.427 328.694C338.976 325.165 339.513 321.616 340.031 318.101C340.376 315.746 340.713 313.41 341.047 311.107C342.307 302.289 343.433 293.951 344.337 287.032C344.682 284.404 344.991 281.978 345.274 279.813C346.149 272.905 346.664 268.616 346.664 268.616L385.461 270.083L424.375 268.616C424.375 268.616 425.379 277.104 426.984 289.412C427.277 291.652 427.591 294.015 427.92 296.481C428.784 302.94 429.772 310.072 430.834 317.375C430.849 317.482 430.866 317.589 430.881 317.697C431.215 319.972 431.551 322.264 431.9 324.556C431.904 324.587 431.909 324.615 431.916 324.647V324.651C432.119 326 432.323 327.349 432.531 328.694H338.427Z" fill="#1976D3"/>
<path fill-rule="evenodd" clip-rule="evenodd" d="M415.432 280.269C415.432 282.288 417.07 283.925 419.088 283.925C421.109 283.925 422.746 282.288 422.746 280.269C422.746 278.249 421.109 276.612 419.088 276.612C417.07 276.612 415.432 278.249 415.432 280.269Z" fill="#1976D3"/>
<path fill-rule="evenodd" clip-rule="evenodd" d="M406.358 294.433C406.358 296.453 407.994 298.089 410.014 298.089C412.034 298.089 413.671 296.453 413.671 294.433C413.671 292.414 412.034 290.776 410.014 290.776C407.994 290.776 406.358 292.414 406.358 294.433Z" fill="#1976D3"/>
<path fill-rule="evenodd" clip-rule="evenodd" d="M388.506 287.12C388.506 289.139 390.142 290.777 392.162 290.777C394.182 290.777 395.819 289.139 395.819 287.12C395.819 285.1 394.182 283.464 392.162 283.464C390.142 283.464 388.506 285.1 388.506 287.12Z" fill="#1976D3"/>
<path fill-rule="evenodd" clip-rule="evenodd" d="M416.683 309.477C416.683 311.497 418.32 313.133 420.339 313.133C422.359 313.133 423.996 311.497 423.996 309.477C423.996 307.457 422.359 305.82 420.339 305.82C418.32 305.82 416.683 307.457 416.683 309.477Z" fill="#1976D3"/>
<path fill-rule="evenodd" clip-rule="evenodd" d="M394.375 307.913C394.375 309.932 396.012 311.57 398.032 311.57C400.052 311.57 401.688 309.932 401.688 307.913C401.688 305.893 400.052 304.257 398.032 304.257C396.012 304.257 394.375 305.893 394.375 307.913Z" fill="#1976D3"/>
<path fill-rule="evenodd" clip-rule="evenodd" d="M424.604 292.841C424.604 294.744 426.055 296.31 427.919 296.48C427.589 294.014 427.277 291.652 426.982 289.411C425.59 289.93 424.604 291.267 424.604 292.841Z" fill="#1976D3"/>
<path fill-rule="evenodd" clip-rule="evenodd" d="M358.092 328.694C358.42 327.011 359.9 325.74 361.68 325.74C363.458 325.74 364.939 327.011 365.266 328.694H358.092Z" fill="#1976D3"/>
<path fill-rule="evenodd" clip-rule="evenodd" d="M359.751 309.477C359.751 311.497 361.387 313.133 363.407 313.133C365.427 313.133 367.064 311.497 367.064 309.477C367.064 307.457 365.427 305.82 363.407 305.82C361.387 305.82 359.751 307.457 359.751 309.477Z" fill="#1976D3"/>
<path fill-rule="evenodd" clip-rule="evenodd" d="M340.031 318.1C340.472 318.286 340.959 318.389 341.467 318.389C343.485 318.389 345.122 316.752 345.122 314.734C345.122 312.715 343.485 311.078 341.467 311.078C341.324 311.078 341.185 311.086 341.047 311.106C340.713 313.409 340.376 315.744 340.031 318.1Z" fill="#1976D3"/>
<path fill-rule="evenodd" clip-rule="evenodd" d="M428.735 321.027C428.735 322.882 430.119 324.416 431.915 324.646C431.907 324.615 431.903 324.587 431.899 324.555C431.55 322.264 431.214 319.972 430.88 317.696C429.616 318.275 428.735 319.548 428.735 321.027Z" fill="#1976D3"/>
<path fill-rule="evenodd" clip-rule="evenodd" d="M404.484 324.698C404.484 326.717 406.121 328.354 408.141 328.354C410.161 328.354 411.797 326.717 411.797 324.698C411.797 322.678 410.161 321.042 408.141 321.042C406.121 321.042 404.484 322.678 404.484 324.698Z" fill="#1976D3"/>
<path fill-rule="evenodd" clip-rule="evenodd" d="M384.851 321.041C384.851 323.061 386.487 324.697 388.507 324.697C390.527 324.697 392.163 323.061 392.163 321.041C392.163 319.022 390.527 317.384 388.507 317.384C386.487 317.384 384.851 319.022 384.851 321.041Z" fill="#1976D3"/>
<path fill-rule="evenodd" clip-rule="evenodd" d="M376.011 301.745C376.011 303.765 377.648 305.402 379.668 305.402C381.687 305.402 383.324 303.765 383.324 301.745C383.324 299.726 381.687 298.089 379.668 298.089C377.648 298.089 376.011 299.726 376.011 301.745Z" fill="#1976D3"/>
<path fill-rule="evenodd" clip-rule="evenodd" d="M344.338 287.032C344.591 287.092 344.853 287.119 345.122 287.119C347.144 287.119 348.778 285.481 348.778 283.464C348.778 281.497 347.224 279.888 345.274 279.812C344.992 281.977 344.682 284.403 344.338 287.032Z" fill="#1976D3"/>
<path fill-rule="evenodd" clip-rule="evenodd" d="M363.406 287.12C363.406 289.139 365.043 290.777 367.063 290.777C369.083 290.777 370.719 289.139 370.719 287.12C370.719 285.1 369.083 283.464 367.063 283.464C365.043 283.464 363.406 285.1 363.406 287.12Z" fill="#1976D3"/>
<path fill-rule="evenodd" clip-rule="evenodd" d="M350.014 300.151C350.014 302.171 351.65 303.808 353.67 303.808C355.69 303.808 357.326 302.171 357.326 300.151C357.326 298.133 355.69 296.495 353.67 296.495C351.65 296.495 350.014 298.133 350.014 300.151Z" fill="#1976D3"/>
<path fill-rule="evenodd" clip-rule="evenodd" d="M344.932 269.575C365.399 282.937 402.978 281.89 426.592 269.575C424.336 255.524 421.367 241.457 422.005 222.755C422.076 220.705 422.162 218.668 422.267 216.649C422.358 214.893 422.46 213.148 422.572 211.423C424.61 180.311 429.918 154.874 427.31 151.586C426.172 150.147 424.273 148.593 421.929 147.003C421.01 146.377 420.025 145.743 418.987 145.107C416.536 143.613 413.813 142.106 411.077 140.639C404.587 137.174 397.998 133.959 394.694 131.762C391.419 133.19 388.811 133.97 386 133.955C385.925 133.955 385.841 133.955 385.758 133.947C385.683 133.955 385.6 133.955 385.525 133.955C382.713 133.97 380.105 133.19 376.825 131.762C373.761 133.801 367.991 136.643 362.105 139.744C357.779 142.024 353.39 144.442 349.972 146.789C347.736 148.324 345.908 149.83 344.789 151.241C343.497 152.872 344.04 160.016 345.146 170.601C346.24 181.018 347.878 194.772 348.871 209.889C349.142 214.088 349.369 218.39 349.521 222.755C350.154 241.457 347.188 255.524 344.932 269.575Z" fill="#24C875"/>
<path fill-rule="evenodd" clip-rule="evenodd" d="M359.299 254.933H359.302C375.782 254.86 389.85 247.361 398.749 241.083C408.373 234.292 414.206 227.411 414.264 227.342C414.545 227.008 414.501 226.507 414.167 226.225C413.832 225.944 413.331 225.987 413.05 226.321C412.994 226.389 407.266 233.139 397.799 239.812C389.093 245.948 375.347 253.276 359.295 253.347C358.857 253.348 358.504 253.706 358.506 254.144C358.508 254.579 358.862 254.933 359.299 254.933Z" fill="#1DA058"/>
<path fill-rule="evenodd" clip-rule="evenodd" d="M376.474 260.535C390.775 260.535 405.036 252.385 405.684 252.01C406.063 251.791 406.193 251.306 405.973 250.926C405.755 250.548 405.269 250.42 404.89 250.637C404.723 250.734 387.942 260.317 373.063 258.778C372.621 258.728 372.238 259.049 372.193 259.485C372.148 259.92 372.464 260.31 372.9 260.355C374.086 260.477 375.28 260.535 376.474 260.535Z" fill="#1DA058"/>
<path fill-rule="evenodd" clip-rule="evenodd" d="M389.135 171.842C389.508 171.842 389.842 171.577 389.914 171.197C389.995 170.767 389.713 170.352 389.283 170.27C369.189 166.458 363.134 153.531 363.075 153.401C362.895 153.003 362.424 152.825 362.026 153.006C361.627 153.186 361.449 153.655 361.63 154.054C361.884 154.616 368.092 167.863 388.987 171.828C389.036 171.838 389.086 171.842 389.135 171.842Z" fill="#1DA058"/>
<path fill-rule="evenodd" clip-rule="evenodd" d="M362.106 139.744C366.094 148.84 375.463 161.179 388.214 158.977C400.561 156.842 406.852 147.394 411.077 140.639C404.586 137.172 397.998 133.961 394.696 131.762C391.421 133.189 388.811 133.969 386.002 133.957C385.926 133.957 385.842 133.957 385.761 133.947C385.684 133.957 385.599 133.957 385.523 133.957C382.714 133.969 380.105 133.189 376.825 131.762C373.761 133.799 367.991 136.642 362.106 139.744Z" fill="#FFC99C"/>
<path fill-rule="evenodd" clip-rule="evenodd" d="M385.522 134.275V134.287C385.599 134.287 385.681 134.287 385.758 134.281C385.681 134.281 385.599 134.275 385.522 134.275Z" fill="#01305A"/>
<path fill-rule="evenodd" clip-rule="evenodd" d="M365.133 68.5151C365.133 68.5151 355.487 83.4571 356.544 99.0219C357.601 114.587 355.123 132.553 369.049 131.764C382.976 130.974 407.818 137.347 415.713 125.225C423.61 113.103 365.133 68.5151 365.133 68.5151Z" fill="#9A4D38"/>
<path fill-rule="evenodd" clip-rule="evenodd" d="M406.028 95.8844C406.028 95.8844 409.873 90.7588 412.731 94.9972C415.589 99.2356 411.548 111.753 404.55 108.698L406.028 95.8844Z" fill="#FB9E82"/>
<path fill-rule="evenodd" clip-rule="evenodd" d="M406.076 104.83C406.335 104.83 406.572 104.659 406.645 104.398C407.73 100.533 411.733 98.9665 411.774 98.9508C412.078 98.8348 412.233 98.4931 412.116 98.188C412.001 97.8839 411.66 97.7292 411.355 97.8452C411.168 97.9152 406.755 99.6279 405.506 104.078C405.419 104.393 405.602 104.719 405.917 104.808C405.969 104.822 406.024 104.83 406.076 104.83Z" fill="#FC7972"/>
<path fill-rule="evenodd" clip-rule="evenodd" d="M410.118 102.883C410.227 102.883 410.338 102.852 410.438 102.788C410.711 102.611 410.792 102.245 410.614 101.97C410.585 101.925 409.878 100.845 408.395 100.181C408.098 100.048 407.747 100.181 407.614 100.48C407.48 100.778 407.614 101.128 407.912 101.261C409.057 101.774 409.615 102.604 409.619 102.611C409.733 102.786 409.922 102.883 410.118 102.883Z" fill="#FC7972"/>
<path fill-rule="evenodd" clip-rule="evenodd" d="M366.412 95.8844C366.412 95.8844 362.568 90.7588 359.71 94.9972C356.852 99.2356 360.893 111.753 367.891 108.698L366.412 95.8844Z" fill="#FB9E82"/>
<path fill-rule="evenodd" clip-rule="evenodd" d="M366.362 104.83C366.104 104.83 365.867 104.659 365.794 104.398C364.709 100.533 360.706 98.9665 360.665 98.9508C360.36 98.8348 360.206 98.4931 360.322 98.188C360.438 97.8839 360.779 97.7292 361.084 97.8452C361.271 97.9152 365.684 99.6279 366.933 104.078C367.021 104.393 366.838 104.719 366.522 104.808C366.47 104.822 366.416 104.83 366.362 104.83Z" fill="#FC7972"/>
<path fill-rule="evenodd" clip-rule="evenodd" d="M362.322 102.883C362.213 102.883 362.101 102.852 362.002 102.788C361.728 102.611 361.648 102.245 361.824 101.97C361.855 101.925 362.562 100.845 364.044 100.181C364.342 100.048 364.693 100.181 364.826 100.48C364.959 100.778 364.826 101.128 364.528 101.261C363.383 101.774 362.825 102.604 362.82 102.611C362.706 102.786 362.517 102.883 362.322 102.883Z" fill="#FC7972"/>
<path fill-rule="evenodd" clip-rule="evenodd" d="M376.758 119.314V131.763C376.758 131.763 380.471 138.103 385.491 138.535C390.507 138.972 394.963 133.076 394.963 133.076V120.19L376.758 119.314Z" fill="#FFC99C"/>
<path fill-rule="evenodd" clip-rule="evenodd" d="M376.758 119.314V124.838C380.127 128.576 386.108 129.901 394.962 128.594L394.963 120.19L376.758 119.314Z" fill="#E5AC80"/>
<path fill-rule="evenodd" clip-rule="evenodd" d="M363.633 87.3457C363.864 92.1828 364.326 98.2332 365.248 103.07C365.479 104.277 365.74 105.412 366.028 106.429C368.649 115.602 375.201 131.332 393.546 124.779C401.648 121.888 405.403 112.864 407.076 103.686C408.212 97.4526 408.383 91.1546 408.3 86.6539C408.212 82.0592 405.705 77.8595 401.707 75.595C390.879 69.4559 379.453 71.7454 371.93 74.6368C366.709 76.6421 363.368 81.7687 363.633 87.3457Z" fill="#FFC99C"/>
<path fill-rule="evenodd" clip-rule="evenodd" d="M394.3 96.6151C394.3 97.9442 394.985 99.0206 395.829 99.0206C396.673 99.0206 397.36 97.9442 397.36 96.6151C397.36 95.2859 396.673 94.2085 395.829 94.2085C394.985 94.2085 394.3 95.2859 394.3 96.6151Z" fill="#584C49"/>
<path fill-rule="evenodd" clip-rule="evenodd" d="M375.409 96.6151C375.409 97.9442 376.094 99.0206 376.939 99.0206C377.783 99.0206 378.469 97.9442 378.469 96.6151C378.469 95.2859 377.783 94.2085 376.939 94.2085C376.094 94.2085 375.409 95.2859 375.409 96.6151Z" fill="#584C49"/>
<path fill-rule="evenodd" clip-rule="evenodd" d="M398.86 89.4519C397.588 89.0934 395.023 88.479 392.315 88.4717C391.603 88.4696 391.058 89.1028 391.183 89.804L391.186 89.8218C391.288 90.3819 391.787 90.7779 392.356 90.7508C394.198 90.6651 399.033 90.9242 401.317 91.849C401.363 91.453 401.128 91.0183 400.797 90.6327C400.292 90.0475 399.602 89.6619 398.86 89.4519Z" fill="#843D2C"/>
<path fill-rule="evenodd" clip-rule="evenodd" d="M374.144 89.5007C375.414 89.1423 377.98 88.5278 380.687 88.5205C381.399 88.5184 381.945 89.1517 381.819 89.8528L381.816 89.8706C381.714 90.4307 381.215 90.8268 380.647 90.7996C378.804 90.7139 373.969 90.973 371.686 91.8978C371.64 91.5008 371.874 91.0671 372.206 90.6815C372.71 90.0963 373.401 89.7107 374.144 89.5007Z" fill="#843D2C"/>
<path fill-rule="evenodd" clip-rule="evenodd" d="M386.016 107.592C386.469 107.592 386.923 107.511 387.301 107.286C387.647 107.078 388.077 106.66 388.161 105.841C388.387 103.668 387.829 96.8547 387.806 96.5653C387.779 96.2403 387.495 95.9979 387.169 96.025C386.843 96.0512 386.601 96.3375 386.627 96.6625C386.634 96.7325 387.199 103.655 386.985 105.719C386.948 106.079 386.801 106.206 386.694 106.27C386.139 106.603 384.857 106.263 384.322 106.046C384.02 105.922 383.674 106.068 383.552 106.37C383.428 106.673 383.573 107.017 383.875 107.141C384.029 107.204 385.018 107.592 386.016 107.592Z" fill="#E5AB7F"/>
<path fill-rule="evenodd" clip-rule="evenodd" d="M393.525 111.326C393.077 113.576 391.591 117.714 386.585 117.714C381.568 117.714 380.161 113.932 379.677 111.326H393.525Z" fill="white"/>
<path fill-rule="evenodd" clip-rule="evenodd" d="M386.659 121.165C388.103 121.165 389.379 120.387 389.432 120.354C389.71 120.182 389.796 119.818 389.625 119.54C389.453 119.262 389.09 119.176 388.812 119.347C388.801 119.353 387.761 119.982 386.659 119.982C385.466 119.982 384.398 119.351 384.387 119.345C384.107 119.176 383.745 119.266 383.576 119.546C383.408 119.825 383.497 120.188 383.776 120.356C383.83 120.39 385.128 121.165 386.659 121.165Z" fill="#E5AC80"/>
<path fill-rule="evenodd" clip-rule="evenodd" d="M361.253 86.3813C361.444 86.9205 361.971 87.2653 362.676 87.4712C362.625 88.7763 362.762 90.3448 362.891 91.8485C363.621 100.396 365.777 101.897 366.264 99.784C366.586 98.3806 366.567 90.3302 366.412 87.7052C368.101 87.5945 369.544 87.3134 369.544 87.3134L371.526 79.0143L372.22 87.2099C375.194 88.2445 382.132 86.5871 382.132 86.5871L384.46 78.4082L385.899 86.2778C390.36 88.4503 395.933 87.0041 395.933 87.0041L397.215 78.5148L400.172 87.0041C400.172 87.0041 409.688 90.4169 409.791 87.0041C409.854 85.0176 408.399 79.4229 407.17 75.0894C405.829 70.363 402.726 66.3702 398.526 64.1183C386.723 57.7827 374.242 61.1527 369.96 63.7107C360.881 69.1299 361.253 86.3813 361.253 86.3813Z" fill="#9A4D38"/>
<path fill-rule="evenodd" clip-rule="evenodd" d="M404.276 69.146C404.276 69.146 412.384 78.4629 414.961 95.1029C417.538 111.744 421.105 124.038 411.079 129.532C400.226 135.48 398.136 125.353 398.292 122.038C398.449 118.723 410.71 107.592 404.55 82.0743C402.56 73.8348 404.276 69.146 404.276 69.146Z" fill="#9A4D38"/>
<path fill-rule="evenodd" clip-rule="evenodd" d="M363.492 108.979C363.492 109.745 364.113 110.365 364.878 110.365C365.644 110.365 366.262 109.745 366.262 108.979C366.262 108.214 365.644 107.593 364.878 107.593C364.113 107.593 363.492 108.214 363.492 108.979Z" fill="white"/>
<path fill-rule="evenodd" clip-rule="evenodd" d="M422.572 211.423C424.61 180.311 429.918 154.873 427.31 151.586C426.172 150.146 424.273 148.592 421.93 147.002C419.543 158.196 413.517 191.88 422.572 211.423Z" fill="#FFC99C"/>
<path fill-rule="evenodd" clip-rule="evenodd" d="M345.146 170.602C346.24 181.017 347.878 194.772 348.869 209.89C356.894 190.395 352.354 158.105 349.972 146.79C347.736 148.325 345.908 149.83 344.789 151.242C343.497 152.871 344.04 160.017 345.146 170.602Z" fill="#FFC99C"/>
<path fill-rule="evenodd" clip-rule="evenodd" d="M418.134 184.726L427.162 213.722L437.045 241.287C438.635 247.056 445.006 250.027 450.447 247.542C450.542 247.499 450.637 247.456 450.732 247.413C460.135 242.967 454.949 224.529 454.949 224.529L453.174 224.391C452.451 222.368 450.499 217.216 448.014 210.747C447.714 209.951 447.4 209.132 447.081 208.305C446.552 206.928 446.005 205.51 445.448 204.053C444.652 201.996 443.834 199.873 443.006 197.736C436.912 181.93 431.864 164.778 431.864 164.778L427.656 152.288L418.134 184.726Z" fill="#FFC99C"/>
<path fill-rule="evenodd" clip-rule="evenodd" d="M443.489 230.43C443.528 230.435 443.563 230.435 443.601 230.435C443.963 230.438 444.282 230.178 444.338 229.812C445.713 221.071 447.097 214.615 448.013 210.744C447.711 209.95 447.396 209.131 447.08 208.304C446.22 211.716 444.54 218.985 442.871 229.58C442.809 229.985 443.083 230.363 443.489 230.43Z" fill="#FFC99C"/>
<path fill-rule="evenodd" clip-rule="evenodd" d="M444.834 230.858C444.834 230.858 446.129 209.853 450.611 205.386C455.091 200.917 459.184 199.214 463.388 199.366C467.591 199.517 471.545 200.039 471.286 201.768C471.286 201.768 480.942 200.309 485.253 202.811C489.565 205.314 472.485 207.504 467.413 207.637C462.342 207.768 459.664 210.601 459.459 213.624C459.255 216.646 456.328 236.664 456.328 236.664L444.834 230.858Z" fill="#FFC99C"/>
<path fill-rule="evenodd" clip-rule="evenodd" d="M439.72 203.128L503.719 203.557C506.127 203.572 508.091 201.635 508.107 199.227V199.19C508.123 196.783 506.184 194.819 503.778 194.803L439.78 194.375C437.372 194.358 435.407 196.296 435.391 198.703V198.74C435.376 201.148 437.313 203.112 439.72 203.128Z" fill="#002744"/>
<path fill-rule="evenodd" clip-rule="evenodd" d="M508.063 203.585L522.074 152.49C522.86 149.62 520.712 146.784 517.737 146.765L487.662 146.563C485.632 146.55 483.841 147.887 483.279 149.837L467.87 203.315L508.063 203.585Z" fill="#003260"/>
<path fill-rule="evenodd" clip-rule="evenodd" d="M483.277 149.839L467.997 202.876L464.56 202.854L479.84 149.816C480.407 147.865 482.195 146.525 484.224 146.539L487.661 146.562C485.631 146.548 483.844 147.888 483.277 149.839Z" fill="#002744"/>
<path fill-rule="evenodd" clip-rule="evenodd" d="M490.826 177.319C490.021 180.69 492.107 183.442 495.483 183.464C498.859 183.487 502.248 180.773 503.052 177.401C503.857 174.031 501.771 171.279 498.395 171.256C495.018 171.235 491.631 173.948 490.826 177.319Z" fill="#004C84"/>
<path fill-rule="evenodd" clip-rule="evenodd" d="M273.46 227.491H275.076V136.622H273.46V227.491Z" fill="#231F20"/>
<path fill-rule="evenodd" clip-rule="evenodd" d="M286.209 224.84L274.266 249.196L262.324 224.84L266.244 187.401L266.348 186.418L266.454 185.436L266.558 184.452L270.615 145.722L270.661 145.296L273.198 143.919L274.266 143.342L275.466 143.991L277.871 145.296L278.068 147.184L286.209 224.84Z" fill="#24C875"/>
<path fill-rule="evenodd" clip-rule="evenodd" d="M279.189 185.435V187.402H266.243L266.348 186.418L266.453 185.435H279.189Z" fill="#19A357"/>
<path fill-rule="evenodd" clip-rule="evenodd" d="M280.795 133.82L279.864 136.121L278.605 139.208L277.904 140.932L277.505 141.914H271.028L270.628 140.932L269.908 139.162L268.675 136.121L267.739 133.82L271.186 128.878H277.347L280.795 133.82Z" fill="#24C875"/>
<path fill-rule="evenodd" clip-rule="evenodd" d="M271.016 126.925L272.923 128.878L269.845 139.379C269.566 140.33 268.218 140.326 267.945 139.374L266.245 133.461L271.016 126.925Z" fill="#0B76B7"/>
<path fill-rule="evenodd" clip-rule="evenodd" d="M282.258 133.459L280.557 139.373C280.283 140.325 278.936 140.328 278.658 139.378L275.578 128.878H275.618L277.505 126.943L282.258 133.459Z" fill="#0B76B7"/>
<path fill-rule="evenodd" clip-rule="evenodd" d="M272.923 128.877L268.971 135.612C268.168 136.98 266.143 136.821 265.563 135.344L260.136 121.522L263.557 119.314L271.016 126.924L272.923 128.877Z" fill="#1890EA"/>
<path fill-rule="evenodd" clip-rule="evenodd" d="M288.398 121.524L282.972 135.342C282.393 136.819 280.365 136.978 279.563 135.61L275.617 128.878L277.504 126.944L284.977 119.314L288.398 121.524Z" fill="#1890EA"/>
<path fill-rule="evenodd" clip-rule="evenodd" d="M279.19 184.453V186.42H265.694L265.903 184.453H279.19Z" fill="#DCF2FF"/>
<path fill-rule="evenodd" clip-rule="evenodd" d="M278.069 147.184L270.617 145.722L270.663 145.297L273.2 143.92L275.467 143.992L277.874 145.297L278.069 147.184Z" fill="#19A357"/>
<path fill-rule="evenodd" clip-rule="evenodd" d="M277.905 140.93L277.505 141.914H271.029L270.629 140.93H277.905Z" fill="#19A357"/>
<path fill-rule="evenodd" clip-rule="evenodd" d="M278.21 145.406H270.329L270.718 141.577H277.821L278.21 145.406Z" fill="#24C875"/>
<path opacity="0.1" fill-rule="evenodd" clip-rule="evenodd" d="M249.625 121.254C249.625 121.254 280.257 152.934 294.712 119.954C281.094 106.357 249.625 121.254 249.625 121.254Z" fill="black"/>
<path fill-rule="evenodd" clip-rule="evenodd" d="M239.028 58.9678C239.028 60.5959 237.707 61.9157 236.08 61.9157H234.311C232.684 61.9157 231.363 60.5959 231.363 58.9678V57.1997C231.363 55.5717 232.684 54.2529 234.311 54.2529H236.08C237.707 54.2529 239.028 55.5717 239.028 57.1997V58.9678Z" fill="#003260"/>
<path fill-rule="evenodd" clip-rule="evenodd" d="M311.03 57.3679H307.09C307.09 38.292 291.406 22.7711 272.127 22.7711C252.85 22.7711 237.166 38.292 237.166 57.3679H233.224C233.224 36.1185 250.676 18.8306 272.127 18.8306C293.578 18.8306 311.03 36.1185 311.03 57.3679Z" fill="#003260"/>
<path fill-rule="evenodd" clip-rule="evenodd" d="M305.205 58.9678C305.205 60.5959 306.525 61.9157 308.152 61.9157H309.921C311.549 61.9157 312.868 60.5959 312.868 58.9678V57.1997C312.868 55.5717 311.549 54.2529 309.921 54.2529H308.152C306.525 54.2529 305.205 55.5717 305.205 57.1997V58.9678Z" fill="#003260"/>
<path fill-rule="evenodd" clip-rule="evenodd" d="M286.456 105.963C286.456 107.146 285.49 108.115 284.309 108.115H252.987C251.805 108.115 250.838 107.146 250.838 105.963V105.609C250.838 104.426 251.805 103.46 252.987 103.46H284.309C285.49 103.46 286.456 104.426 286.456 105.609V105.963Z" fill="white"/>
<path fill-rule="evenodd" clip-rule="evenodd" d="M286.456 115.214C286.456 116.394 285.49 117.362 284.309 117.362H252.987C251.805 117.362 250.838 116.394 250.838 115.214V114.859C250.838 113.677 251.805 112.708 252.987 112.708H284.309C285.49 112.708 286.456 113.677 286.456 114.859V115.214Z" fill="white"/>
<mask id="mask0" mask-type="alpha" maskUnits="userSpaceOnUse" x="240" y="19" width="68" height="112">
<path fill-rule="evenodd" clip-rule="evenodd" d="M271.395 19.946C271.395 19.946 239.857 19.2292 241.292 54.7078L240.822 99.3947C240.713 109.937 246.012 119.801 254.863 125.529C267.687 133.826 284.657 131.451 294.71 119.953L299.428 114.557C304.549 108.7 307.281 101.122 307.014 93.3465C306.192 69.5087 301.341 19.6263 275.142 19.6221C273.937 19.6221 272.691 19.7276 271.395 19.946Z" fill="white"/>
</mask>
<g mask="url(#mask0)">
<path fill-rule="evenodd" clip-rule="evenodd" d="M236.114 135.169H311.736V14.9165H236.114V135.169Z" fill="#FFC99C"/>
</g>
<mask id="mask1" mask-type="alpha" maskUnits="userSpaceOnUse" x="272" y="70" width="14" height="15">
<path fill-rule="evenodd" clip-rule="evenodd" d="M272.494 72.3241L273.452 83.9639L279.203 84.2377C282.53 85.2001 284.737 84.2471 285.501 80.6702C285.918 78.7172 284.903 76.0817 282.746 75.5394C281.844 75.3127 281.032 75.7202 280.231 76.1288C279.455 76.5248 278.69 76.9209 277.868 76.7369C275.412 76.1915 274.888 72.926 274.959 70.9541L272.494 72.3241Z" fill="white"/>
</mask>
<g mask="url(#mask1)">
<path fill-rule="evenodd" clip-rule="evenodd" d="M267.787 89.2963H290.299V66.2485H267.787V89.2963Z" fill="#FFC99C"/>
</g>
<mask id="mask2" mask-type="alpha" maskUnits="userSpaceOnUse" x="274" y="71" width="12" height="15">
<path fill-rule="evenodd" clip-rule="evenodd" d="M274.566 72.473C274.566 73.1669 274.614 74.1993 275.113 75.4041C275.373 75.9956 275.785 76.6393 276.461 77.1106C276.797 77.3509 277.191 77.5129 277.625 77.6142C278.085 77.7156 278.579 77.654 279.007 77.516C279.867 77.2401 280.58 76.7417 281.321 76.517C282.03 76.2558 282.77 76.4711 283.425 76.9685C286.081 79.2214 284.647 83.5925 282.712 84.394C281.706 84.8684 280.698 84.7858 280.046 84.7367C279.377 84.6793 279 84.6082 278.98 84.6845C278.963 84.7378 279.301 84.9321 279.979 85.1108C280.641 85.2718 281.713 85.5069 282.989 85.0262C284.3 84.558 285.296 83.0648 285.66 81.4378C286.108 79.7502 285.69 77.5662 284.026 76.1994C283.606 75.8723 283.122 75.6351 282.61 75.5097C282.066 75.3759 281.5 75.4512 281.034 75.6048C280.098 75.9193 279.405 76.4324 278.727 76.6612C278.077 76.9183 277.451 76.7678 276.907 76.4334C276.38 76.1074 276.001 75.61 275.736 75.1074C274.768 73.0133 274.921 71.4009 274.739 71.4009C274.737 71.4009 274.736 71.4009 274.734 71.4009C274.671 71.4009 274.578 71.7792 274.566 72.473Z" fill="white"/>
</mask>
<g mask="url(#mask2)">
<path fill-rule="evenodd" clip-rule="evenodd" d="M269.86 90.0175H290.533V66.6938H269.86V90.0175Z" fill="#EF966F"/>
</g>
<g opacity="0.1">
<mask id="mask3" mask-type="alpha" maskUnits="userSpaceOnUse" x="273" y="77" width="12" height="7">
<path fill-rule="evenodd" clip-rule="evenodd" d="M278.548 78.1613C275.694 79.1331 273.574 80.6222 273.782 81.9577C273.985 83.291 276.937 83.8658 280.087 82.7936C283.21 81.7372 285.173 79.7601 284.705 78.5124C284.443 77.8186 283.493 77.4873 282.217 77.4873C281.151 77.4873 279.858 77.7182 278.548 78.1613Z" fill="white"/>
</mask>
<g mask="url(#mask3)">
<path fill-rule="evenodd" clip-rule="evenodd" d="M269.061 88.0591H289.478V72.7817H269.061V88.0591Z" fill="#F45151"/>
</g>
</g>
<mask id="mask4" mask-type="alpha" maskUnits="userSpaceOnUse" x="302" y="64" width="14" height="17">
<path fill-rule="evenodd" clip-rule="evenodd" d="M302.576 64.7889L302.821 80.0454L302.834 80.8302C302.834 80.8302 315.511 82.9002 315.772 72.5509C315.944 65.651 310.021 64.5005 306.053 64.5005C304.07 64.5005 302.576 64.7889 302.576 64.7889Z" fill="white"/>
</mask>
<g mask="url(#mask4)">
<path fill-rule="evenodd" clip-rule="evenodd" d="M297.87 85.7044H320.482V59.7944H297.87V85.7044Z" fill="#FFC99C"/>
</g>
<mask id="mask5" mask-type="alpha" maskUnits="userSpaceOnUse" x="306" y="68" width="8" height="10">
<path fill-rule="evenodd" clip-rule="evenodd" d="M309.054 68.1784C308.806 68.2327 308.551 68.287 308.288 68.3435C307.873 68.449 307.661 68.542 307.677 68.6172C307.691 68.6925 307.93 68.7416 308.329 68.7709C308.576 68.7792 308.815 68.7876 309.047 68.797C309.353 68.8639 309.651 68.9307 309.94 68.9955C311.272 69.238 312.441 70.9193 312.052 72.98C311.896 73.9727 311.507 74.8933 310.963 75.5516C310.395 76.1744 309.727 76.5349 309.092 76.5747C308.466 76.5893 307.913 76.4733 307.557 76.304C307.185 76.1744 306.945 76.1243 306.9 76.187C306.856 76.2476 307.011 76.419 307.355 76.6844C307.674 76.9801 308.272 77.2664 309.095 77.3563C309.945 77.4253 310.949 77.0104 311.719 76.235C312.461 75.4356 312.955 74.3416 313.146 73.1388C313.346 71.9413 313.142 70.6852 312.502 69.7604C312.255 69.2578 311.75 68.9631 311.382 68.6622C310.925 68.4971 310.52 68.2348 310.116 68.2348C309.772 68.2087 309.458 68.1763 309.182 68.1763C309.138 68.1763 309.096 68.1763 309.054 68.1784Z" fill="white"/>
</mask>
<g mask="url(#mask5)">
<path fill-rule="evenodd" clip-rule="evenodd" d="M302.187 82.0696H317.926V63.4692H302.187V82.0696Z" fill="#EF966F"/>
</g>
<mask id="mask6" mask-type="alpha" maskUnits="userSpaceOnUse" x="305" y="71" width="7" height="3">
<path fill-rule="evenodd" clip-rule="evenodd" d="M308.497 72.3242C307.548 72.6763 306.71 72.5938 306.134 72.5112C305.71 72.4496 305.429 72.389 305.349 72.4997C305.272 72.6115 305.515 72.9814 306.147 73.2949C306.774 73.6147 307.836 73.7087 308.826 73.3785C310.782 72.6721 311.865 71.5593 311.753 71.3356C311.727 71.2813 311.665 71.2583 311.571 71.2583C311.102 71.2583 309.862 71.8403 308.497 72.3242Z" fill="white"/>
</mask>
<g mask="url(#mask6)">
<path fill-rule="evenodd" clip-rule="evenodd" d="M300.629 78.2914H316.467V66.5522H300.629V78.2914Z" fill="#EF966F"/>
</g>
<mask id="mask7" mask-type="alpha" maskUnits="userSpaceOnUse" x="240" y="59" width="7" height="25">
<path fill-rule="evenodd" clip-rule="evenodd" d="M240.2 60.0335L240.469 83.9611L246.382 82.8858L244.64 59.8799L240.2 60.0335Z" fill="white"/>
</mask>
<g mask="url(#mask7)">
<path fill-rule="evenodd" clip-rule="evenodd" d="M235.494 88.6676H251.09V55.1743H235.494V88.6676Z" fill="#9A4D38"/>
</g>
<mask id="mask8" mask-type="alpha" maskUnits="userSpaceOnUse" x="301" y="53" width="9" height="23">
<path fill-rule="evenodd" clip-rule="evenodd" d="M301.506 54.0143L303.636 75.0599L309.148 75.0787L305.539 53.4385L301.506 54.0143Z" fill="white"/>
</mask>
<g mask="url(#mask8)">
<path fill-rule="evenodd" clip-rule="evenodd" d="M296.799 79.7841H313.854V48.7319H296.799V79.7841Z" fill="#9A4D38"/>
</g>
<mask id="mask9" mask-type="alpha" maskUnits="userSpaceOnUse" x="228" y="65" width="14" height="18">
<path fill-rule="evenodd" clip-rule="evenodd" d="M228.046 73.7164C228.304 84.0658 240.982 81.9957 240.982 81.9957L240.995 81.212L241.242 65.9544C241.242 65.9544 239.747 65.666 237.763 65.666C233.796 65.666 227.873 66.8165 228.046 73.7164Z" fill="white"/>
</mask>
<g mask="url(#mask9)">
<path fill-rule="evenodd" clip-rule="evenodd" d="M223.336 86.8713H245.948V60.9614H223.336V86.8713Z" fill="#FFC99C"/>
</g>
<mask id="mask10" mask-type="alpha" maskUnits="userSpaceOnUse" x="267" y="112" width="26" height="8">
<path fill-rule="evenodd" clip-rule="evenodd" d="M292.648 112.193C292.611 112.223 292.558 112.266 292.489 112.321C292.349 112.437 292.149 112.605 291.887 112.821C291.372 113.266 290.594 113.869 289.618 114.593C289.367 114.765 289.106 114.946 288.833 115.135C288.697 115.23 288.557 115.327 288.416 115.425C288.274 115.521 288.121 115.609 287.969 115.704C287.665 115.891 287.351 116.084 287.026 116.284C286.697 116.475 286.348 116.653 285.996 116.844C284.572 117.587 282.936 118.278 281.144 118.755C279.351 119.234 277.587 119.441 275.984 119.523C275.783 119.531 275.586 119.54 275.391 119.547C275.195 119.553 275.002 119.57 274.811 119.563C274.431 119.559 274.061 119.554 273.704 119.55C273.525 119.546 273.35 119.552 273.177 119.54C273.005 119.529 272.837 119.52 272.67 119.51C272.339 119.491 272.022 119.472 271.717 119.455C270.506 119.35 269.528 119.249 268.855 119.149C268.52 119.106 268.259 119.073 268.078 119.05C267.991 119.038 267.924 119.03 267.875 119.025C267.83 119.019 267.806 119.018 267.806 119.018C267.806 119.018 267.83 119.025 267.875 119.032C267.923 119.039 267.99 119.05 268.076 119.063C268.257 119.09 268.517 119.128 268.85 119.176C269.523 119.285 270.502 119.392 271.714 119.503C272.017 119.523 272.336 119.543 272.668 119.563C272.833 119.574 273.003 119.584 273.175 119.595C273.347 119.609 273.523 119.603 273.702 119.609C274.06 119.614 274.431 119.618 274.812 119.624C275.003 119.632 275.195 119.615 275.392 119.61C275.588 119.603 275.787 119.594 275.987 119.587C277.593 119.508 279.363 119.302 281.163 118.823C282.961 118.343 284.6 117.648 286.025 116.901C286.378 116.708 286.728 116.529 287.057 116.337C287.381 116.136 287.695 115.942 288.001 115.753C288.152 115.657 288.304 115.569 288.446 115.472C288.588 115.373 288.727 115.274 288.863 115.18C289.135 114.99 289.396 114.807 289.647 114.633C290.62 113.902 291.395 113.293 291.905 112.842C292.161 112.622 292.361 112.451 292.5 112.331C292.565 112.274 292.617 112.229 292.653 112.198C292.688 112.168 292.704 112.151 292.704 112.151C292.704 112.151 292.684 112.163 292.648 112.193Z" fill="white"/>
</mask>
<g mask="url(#mask10)">
<path fill-rule="evenodd" clip-rule="evenodd" d="M263.1 124.333H297.41V107.445H263.1V124.333Z" fill="#EF966F"/>
</g>
<mask id="mask11" mask-type="alpha" maskUnits="userSpaceOnUse" x="239" y="29" width="10" height="32">
<path fill-rule="evenodd" clip-rule="evenodd" d="M242.229 31.9511C238.654 46.7719 240.2 60.0335 240.2 60.0335L244.734 60.1819L248.091 30.4652C248.091 30.4652 247.175 29.7964 245.889 29.7964C244.819 29.7964 243.495 30.2583 242.229 31.9511Z" fill="white"/>
</mask>
<g mask="url(#mask11)">
<path fill-rule="evenodd" clip-rule="evenodd" d="M232.802 64.8888H252.797V25.0913H232.802V64.8888Z" fill="#9A4D38"/>
</g>
<mask id="mask12" mask-type="alpha" maskUnits="userSpaceOnUse" x="291" y="26" width="15" height="29">
<path fill-rule="evenodd" clip-rule="evenodd" d="M291.759 28.5781L301.691 54.7941L305.554 53.6719C305.026 53.0407 307.231 42.9683 297.428 28.5697C296.843 27.2395 296.019 26.7964 295.18 26.7964C293.5 26.7964 291.759 28.5781 291.759 28.5781ZM305.555 53.6724C305.603 53.7299 305.674 53.71 305.777 53.6087L305.555 53.6724Z" fill="white"/>
</mask>
<g mask="url(#mask12)">
<path fill-rule="evenodd" clip-rule="evenodd" d="M287.052 59.4992H310.828V22.6475H287.052V59.4992Z" fill="#9A4D38"/>
</g>
<g opacity="0.2">
<mask id="mask13" mask-type="alpha" maskUnits="userSpaceOnUse" x="251" y="53" width="21" height="6">
<path fill-rule="evenodd" clip-rule="evenodd" d="M251.054 54.4921L271.462 53.7471L271.389 58.952L252.195 58.2498L251.054 54.4921Z" fill="white"/>
</mask>
<g mask="url(#mask13)">
<path fill-rule="evenodd" clip-rule="evenodd" d="M246.348 63.6575H276.168V49.0405H246.348V63.6575Z" fill="black"/>
</g>
</g>
<mask id="mask14" mask-type="alpha" maskUnits="userSpaceOnUse" x="251" y="52" width="22" height="6">
<path fill-rule="evenodd" clip-rule="evenodd" d="M251.713 53.0664L252.854 56.822L272.046 57.5242L272.115 52.3203L251.713 53.0664Z" fill="white"/>
</mask>
<g mask="url(#mask14)">
<path fill-rule="evenodd" clip-rule="evenodd" d="M247.006 62.2307H276.821V47.6138H247.006V62.2307Z" fill="#9A4D38"/>
</g>
<g opacity="0.2">
<mask id="mask15" mask-type="alpha" maskUnits="userSpaceOnUse" x="280" y="54" width="20" height="11">
<path fill-rule="evenodd" clip-rule="evenodd" d="M280.217 58.9173L281.719 54.2798L299.592 61.4002L297.451 64.3689L280.217 58.9173Z" fill="white"/>
</mask>
<g mask="url(#mask15)">
<path fill-rule="evenodd" clip-rule="evenodd" d="M275.51 69.0759H304.298V49.5747H275.51V69.0759Z" fill="black"/>
</g>
</g>
<mask id="mask16" mask-type="alpha" maskUnits="userSpaceOnUse" x="279" y="52" width="20" height="11">
<path fill-rule="evenodd" clip-rule="evenodd" d="M279.376 57.4916L296.608 62.9411L298.748 59.9734L280.875 52.853L279.376 57.4916Z" fill="white"/>
</mask>
<g mask="url(#mask16)">
<path fill-rule="evenodd" clip-rule="evenodd" d="M274.67 67.6471H303.454V48.147H274.67V67.6471Z" fill="#9A4D38"/>
</g>
<g opacity="0.2">
<mask id="mask17" mask-type="alpha" maskUnits="userSpaceOnUse" x="260" y="61" width="7" height="11">
<path fill-rule="evenodd" clip-rule="evenodd" d="M260.608 66.5009C260.895 63.9021 262.384 61.9146 263.992 61.9146C264.063 61.9146 264.134 61.9177 264.205 61.926C265.895 62.111 267.024 64.4601 266.727 67.1718C266.429 69.8824 264.819 71.9305 263.128 71.7456C261.441 71.5617 260.311 69.2105 260.608 66.5009Z" fill="white"/>
</mask>
<g mask="url(#mask17)">
<path fill-rule="evenodd" clip-rule="evenodd" d="M255.856 76.4631H271.481V57.2075H255.856V76.4631Z" fill="black"/>
</g>
<mask id="mask18" mask-type="alpha" maskUnits="userSpaceOnUse" x="281" y="63" width="7" height="11">
<path fill-rule="evenodd" clip-rule="evenodd" d="M281.177 68.349C281.463 65.7481 282.891 63.748 284.42 63.748C284.485 63.748 284.548 63.7512 284.613 63.7585C286.213 63.933 287.27 66.2748 286.973 68.9844C286.675 71.6961 285.137 73.7515 283.537 73.5759C281.936 73.4004 280.878 71.0607 281.177 68.349Z" fill="white"/>
</mask>
<g mask="url(#mask18)">
<path fill-rule="evenodd" clip-rule="evenodd" d="M276.422 78.2934H291.73V59.042H276.422V78.2934Z" fill="black"/>
</g>
</g>
<mask id="mask19" mask-type="alpha" maskUnits="userSpaceOnUse" x="261" y="61" width="5" height="10">
<path fill-rule="evenodd" clip-rule="evenodd" d="M261.82 65.8207C261.574 68.0872 262.238 70.0194 263.304 70.1354C264.371 70.2524 265.438 68.5115 265.687 66.2439C265.936 63.9753 265.272 62.0452 264.204 61.9261C264.171 61.9219 264.137 61.9209 264.104 61.9209C263.071 61.9209 262.063 63.6231 261.82 65.8207Z" fill="white"/>
</mask>
<g mask="url(#mask19)">
<path fill-rule="evenodd" clip-rule="evenodd" d="M257.063 74.8471H270.446V57.2144H257.063V74.8471Z" fill="#584C49"/>
</g>
<mask id="mask20" mask-type="alpha" maskUnits="userSpaceOnUse" x="282" y="63" width="5" height="10">
<path fill-rule="evenodd" clip-rule="evenodd" d="M282.302 67.7411C282.053 70.0097 282.719 71.9398 283.783 72.0579C284.85 72.1749 285.918 70.433 286.167 68.1654C286.416 65.8999 285.751 63.9646 284.686 63.8476C284.653 63.8434 284.62 63.8413 284.586 63.8413C283.554 63.8413 282.544 65.5467 282.302 67.7411Z" fill="white"/>
</mask>
<g mask="url(#mask20)">
<path fill-rule="evenodd" clip-rule="evenodd" d="M277.542 76.77H290.924V59.1362H277.542V76.77Z" fill="#584C49"/>
</g>
<mask id="mask21" mask-type="alpha" maskUnits="userSpaceOnUse" x="252" y="86" width="43" height="23">
<path fill-rule="evenodd" clip-rule="evenodd" d="M272.41 108.588C291.005 110.628 297.052 100.052 292.852 89.3274C292.852 89.3274 294.343 100.243 273.067 98.1532C250.574 95.9431 253.869 86.0264 253.869 86.0264C249.536 94.3485 253.819 106.548 272.41 108.588Z" fill="white"/>
</mask>
<g mask="url(#mask21)">
<path fill-rule="evenodd" clip-rule="evenodd" d="M247.609 113.548H298.83V81.3198H247.609V113.548Z" fill="#910A00"/>
</g>
<mask id="mask22" mask-type="alpha" maskUnits="userSpaceOnUse" x="253" y="89" width="40" height="20">
<path fill-rule="evenodd" clip-rule="evenodd" d="M253.94 98.6425C256.541 103.443 262.397 107.488 272.411 108.587C283.204 109.771 289.763 106.701 292.552 101.82C293.181 99.6446 292.769 96.771 292.202 92.6716C290.769 95.6853 286.36 99.4586 273.067 98.1524C259.077 96.7773 255.064 92.4239 254.03 89.3267C253.741 91.3278 253.394 94.9987 253.94 98.6425Z" fill="white"/>
</mask>
<g mask="url(#mask22)">
<path fill-rule="evenodd" clip-rule="evenodd" d="M248.949 113.548H297.576V84.6216H248.949V113.548Z" fill="white"/>
</g>
<mask id="mask23" mask-type="alpha" maskUnits="userSpaceOnUse" x="253" y="89" width="40" height="12">
<path fill-rule="evenodd" clip-rule="evenodd" d="M253.67 95.54C255.029 94.7939 255.001 93.3414 259.153 95.771C267.652 100.736 279.584 101.207 286.091 98.6049C289.924 97.0688 291.331 95.3916 292.763 97.1869C292.643 95.8671 292.434 94.377 292.201 92.6716C290.767 95.6853 286.36 99.4586 273.066 98.1514C259.076 96.7773 255.062 92.4239 254.03 89.3267C253.826 90.7509 253.591 93.03 253.67 95.54Z" fill="white"/>
</mask>
<g mask="url(#mask23)">
<path fill-rule="evenodd" clip-rule="evenodd" d="M248.949 104.87H297.471V84.6216H248.949V104.87Z" fill="#C4C4C4"/>
</g>
<mask id="mask24" mask-type="alpha" maskUnits="userSpaceOnUse" x="256" y="98" width="17" height="6">
<path fill-rule="evenodd" clip-rule="evenodd" d="M272.174 102.943C263.939 103.382 256.971 98.9517 256.971 98.9517C260.531 103.253 271.264 104.553 272.174 102.943Z" fill="white"/>
</mask>
<g mask="url(#mask24)">
<path fill-rule="evenodd" clip-rule="evenodd" d="M252.263 108.316H276.879V94.2461H252.263V108.316Z" fill="#C4C4C4"/>
</g>
<mask id="mask25" mask-type="alpha" maskUnits="userSpaceOnUse" x="231" y="69" width="8" height="10">
<path fill-rule="evenodd" clip-rule="evenodd" d="M234.883 69.4911C234.489 69.4911 234.095 69.7471 233.647 69.908C233.288 70.2016 232.798 70.488 232.556 70.9781C231.933 71.8809 231.732 73.1066 231.926 74.2749C232.112 75.4474 232.595 76.5153 233.318 77.2938C234.071 78.0514 235.051 78.4558 235.879 78.3889C236.682 78.3012 237.266 78.0222 237.576 77.7327C237.911 77.4736 238.064 77.3074 238.019 77.2478C237.977 77.1872 237.743 77.2353 237.379 77.3628C237.032 77.5279 236.493 77.6408 235.883 77.6261C235.262 77.5875 234.612 77.2364 234.056 76.6292C233.526 75.9855 233.147 75.0879 232.993 74.1192C232.615 72.1087 233.756 70.4692 235.055 70.234C235.337 70.1692 235.628 70.1055 235.925 70.0386C236.153 70.0303 236.385 70.0219 236.626 70.0146C237.016 69.9864 237.248 69.9362 237.262 69.8641C237.277 69.791 237.07 69.7001 236.665 69.5966C236.41 69.5423 236.162 69.4879 235.919 69.4357C235.879 69.4336 235.84 69.4336 235.799 69.4336C235.527 69.4336 235.22 69.4649 234.883 69.4911Z" fill="white"/>
</mask>
<g mask="url(#mask25)">
<path fill-rule="evenodd" clip-rule="evenodd" d="M227.265 82.986H242.619V64.8423H227.265V82.986Z" fill="#EF966F"/>
</g>
<mask id="mask26" mask-type="alpha" maskUnits="userSpaceOnUse" x="233" y="72" width="7" height="3">
<path fill-rule="evenodd" clip-rule="evenodd" d="M233.288 72.5156C233.286 72.5177 233.306 72.5313 233.343 72.5553C233.388 72.5825 233.443 72.6159 233.511 72.6557C233.667 72.7476 233.879 72.8699 234.134 73.0183C234.666 73.314 235.401 73.7403 236.292 74.0277C236.738 74.1667 237.181 74.2398 237.588 74.2461C237.689 74.243 237.788 74.2409 237.885 74.2377C237.98 74.2315 238.073 74.2126 238.161 74.2012C238.342 74.1844 238.501 74.1238 238.649 74.0873C238.94 73.988 239.166 73.8845 239.31 73.7915C239.378 73.7518 239.433 73.7173 239.478 73.6912C239.517 73.6672 239.537 73.6536 239.535 73.6515C239.532 73.6494 239.513 73.6588 239.471 73.6787C239.424 73.7027 239.367 73.733 239.296 73.7685C239.151 73.8542 238.921 73.9483 238.636 74.0413C238.487 74.0737 238.331 74.1311 238.153 74.1458C238.064 74.1552 237.975 74.1729 237.881 74.1771C237.786 74.1792 237.688 74.1813 237.589 74.1834C237.19 74.1729 236.754 74.0998 236.312 73.9629C235.431 73.6787 234.694 73.2617 234.158 72.9754C233.898 72.8354 233.683 72.7183 233.523 72.6337C233.455 72.5971 233.396 72.5679 233.349 72.5428C233.313 72.525 233.292 72.5156 233.288 72.5156Z" fill="white"/>
</mask>
<g mask="url(#mask26)">
<path fill-rule="evenodd" clip-rule="evenodd" d="M228.695 78.8368H244.125V67.9253H228.695V78.8368Z" fill="#EF966F"/>
</g>
<path fill-rule="evenodd" clip-rule="evenodd" d="M298.049 108.864H281.093V106.358H298.049C307.952 106.358 313.728 87.6297 314.6 84.592L317.73 83.9629C316.491 90.0435 309.868 108.864 298.049 108.864Z" fill="#003260"/>
<path fill-rule="evenodd" clip-rule="evenodd" d="M289.083 108.216C289.083 110.221 287.456 111.847 285.452 111.847H276.737C274.73 111.847 273.104 110.221 273.104 108.216V107.006C273.104 105 274.73 103.375 276.737 103.375H285.452C287.456 103.375 289.083 105 289.083 107.006V108.216Z" fill="#003260"/>
<path fill-rule="evenodd" clip-rule="evenodd" d="M223.235 75.0536C223.93 82.6672 230.633 88.286 238.235 87.6653L235.705 59.9351C228.114 60.701 222.54 67.44 223.235 75.0536Z" fill="#003260"/>
<path fill-rule="evenodd" clip-rule="evenodd" d="M243.385 85.8246C243.535 87.4527 242.335 88.8926 240.707 89.042C239.078 89.1904 237.637 87.9908 237.489 86.3628L235.206 61.3505C235.057 59.7224 236.258 58.2814 237.885 58.133C239.514 57.9846 240.955 59.1842 241.102 60.8123L243.385 85.8246Z" fill="#24C875"/>
<path fill-rule="evenodd" clip-rule="evenodd" d="M325.5 71.889C325.269 79.5318 318.921 85.5456 311.293 85.3878L312.136 57.5552C319.76 57.8593 325.732 64.2471 325.5 71.889Z" fill="#003260"/>
<path fill-rule="evenodd" clip-rule="evenodd" d="M306.043 83.8648C305.993 85.4991 307.279 86.8639 308.913 86.913C310.546 86.9631 311.912 85.6778 311.962 84.0445L312.722 58.9392C312.771 57.3049 311.486 55.9402 309.853 55.8911C308.217 55.8409 306.851 57.1252 306.803 58.7605L306.043 83.8648Z" fill="#24C875"/>
<path fill-rule="evenodd" clip-rule="evenodd" d="M246.97 35.4145C245.671 35.4145 244.376 34.892 243.426 33.8617C241.624 31.9055 241.747 28.8584 243.703 27.0548C251.45 19.9156 261.544 15.9834 272.126 15.9834C282.709 15.9834 292.802 19.9156 300.547 27.0538C302.506 28.8563 302.631 31.9045 300.826 33.8607C299.023 35.8168 295.975 35.9422 294.018 34.1386C288.057 28.6442 280.283 25.618 272.126 25.618C263.971 25.618 256.195 28.6442 250.233 34.1397C249.307 34.9934 248.137 35.4145 246.97 35.4145Z" fill="#003260"/>
<path fill-rule="evenodd" clip-rule="evenodd" d="M401.354 122.712H389.222V120.917H401.354C408.438 120.917 412.572 107.518 413.196 105.345L415.436 104.895C414.549 109.245 409.81 122.712 401.354 122.712Z" fill="#003260"/>
<path fill-rule="evenodd" clip-rule="evenodd" d="M394.939 122.248C394.939 123.682 393.775 124.846 392.342 124.846H386.105C384.671 124.846 383.508 123.682 383.508 122.248V121.381C383.508 119.947 384.671 118.784 386.105 118.784H392.342C393.775 118.784 394.939 119.947 394.939 121.381V122.248Z" fill="#003260"/>
<path fill-rule="evenodd" clip-rule="evenodd" d="M350.037 98.3858C350.535 103.834 355.329 107.853 360.769 107.409L358.958 87.5693C353.527 88.1169 349.539 92.9384 350.037 98.3858Z" fill="#003260"/>
<path fill-rule="evenodd" clip-rule="evenodd" d="M364.451 106.093C364.558 107.258 363.699 108.288 362.534 108.395C361.37 108.502 360.338 107.643 360.233 106.479L358.598 88.5825C358.493 87.4174 359.351 86.387 360.516 86.2804C361.682 86.1738 362.711 87.0318 362.818 88.1979L364.451 106.093Z" fill="#24C875"/>
<path fill-rule="evenodd" clip-rule="evenodd" d="M420.995 96.2572C420.83 101.726 416.289 106.029 410.83 105.916L411.434 86.002C416.887 86.2193 421.161 90.7889 420.995 96.2572Z" fill="#003260"/>
<path fill-rule="evenodd" clip-rule="evenodd" d="M407.073 104.826C407.038 105.996 407.957 106.972 409.128 107.007C410.296 107.043 411.274 106.123 411.309 104.955L411.852 86.9929C411.887 85.8236 410.968 84.8465 409.799 84.811C408.629 84.7765 407.653 85.695 407.618 86.8644L407.073 104.826Z" fill="#24C875"/>
<path fill-rule="evenodd" clip-rule="evenodd" d="M413.598 86.122H410.741C410.741 72.295 399.372 61.0449 385.399 61.0449C371.426 61.0449 360.058 72.295 360.058 86.122H357.2C357.2 70.7192 369.85 58.188 385.399 58.188C400.947 58.188 413.598 70.7192 413.598 86.122Z" fill="#003260"/>
<path fill-rule="evenodd" clip-rule="evenodd" d="M367.162 70.2086C366.221 70.2086 365.282 69.8303 364.593 69.0831C363.287 67.6651 363.377 65.4561 364.794 64.1488C370.408 58.9741 377.725 56.1245 385.396 56.1245C393.067 56.1245 400.383 58.9741 405.998 64.1478C407.416 65.455 407.507 67.6641 406.2 69.0821C404.892 70.5001 402.683 70.591 401.265 69.2838C396.944 65.3014 391.309 63.108 385.396 63.108C379.485 63.108 373.848 65.3014 369.528 69.2838C368.856 69.9034 368.008 70.2086 367.162 70.2086Z" fill="#003260"/>
<path fill-rule="evenodd" clip-rule="evenodd" d="M405.487 71.0298C405.487 71.0298 410.125 72.5523 410.422 75.195C410.665 77.3633 412.283 79.5348 414.399 79.8995C411.266 79.9339 410.119 81.6404 410.422 82.8254C410.325 85.0125 404.219 80.5661 404.219 80.5661L405.487 71.0298Z" fill="#9A4D38"/>
<path fill-rule="evenodd" clip-rule="evenodd" d="M113.514 75.152C113.514 76.3317 112.558 77.2889 111.377 77.2889H110.096C108.916 77.2889 107.959 76.3317 107.959 75.152V73.8708C107.959 72.69 108.916 71.7339 110.096 71.7339H111.377C112.558 71.7339 113.514 72.69 113.514 73.8708V75.152Z" fill="#003260"/>
<path fill-rule="evenodd" clip-rule="evenodd" d="M161.483 75.152C161.483 76.3317 162.441 77.2889 163.621 77.2889H164.901C166.082 77.2889 167.038 76.3317 167.038 75.152V73.8708C167.038 72.69 166.082 71.7339 164.901 71.7339H163.621C162.441 71.7339 161.483 72.69 161.483 73.8708V75.152Z" fill="#003260"/>
<path fill-rule="evenodd" clip-rule="evenodd" d="M153.464 110.584H141.333V108.79H153.464C160.548 108.79 164.681 95.3904 165.305 93.218L167.546 92.7676C166.659 97.1178 161.92 110.584 153.464 110.584Z" fill="#003260"/>
<path fill-rule="evenodd" clip-rule="evenodd" d="M147.048 110.12C147.048 111.555 145.885 112.718 144.45 112.718H138.214C136.779 112.718 135.616 111.555 135.616 110.12V109.254C135.616 107.819 136.779 106.656 138.214 106.656H144.45C145.885 106.656 147.048 107.819 147.048 109.254V110.12Z" fill="#003260"/>
<path fill-rule="evenodd" clip-rule="evenodd" d="M102.146 86.2588C102.643 91.7073 107.437 95.7262 112.878 95.2821L111.067 75.4424C105.637 75.9899 101.648 80.8114 102.146 86.2588Z" fill="#003260"/>
<path fill-rule="evenodd" clip-rule="evenodd" d="M116.562 93.9655C116.669 95.1307 115.81 96.161 114.645 96.2676C113.48 96.3742 112.449 95.5152 112.343 94.3511L110.709 76.4551C110.603 75.2899 111.461 74.2596 112.626 74.153C113.793 74.0464 114.823 74.9043 114.93 76.0705L116.562 93.9655Z" fill="#24C875"/>
<path fill-rule="evenodd" clip-rule="evenodd" d="M173.106 84.1298C172.941 89.5981 168.398 93.9013 162.94 93.7884L163.544 73.8745C168.998 74.0919 173.271 78.6615 173.106 84.1298Z" fill="#003260"/>
<path fill-rule="evenodd" clip-rule="evenodd" d="M159.184 92.6969C159.148 93.8662 160.068 94.8422 161.237 94.8777C162.405 94.9132 163.384 93.9937 163.419 92.8254L163.962 74.8635C163.997 73.6942 163.078 72.7171 161.909 72.6816C160.739 72.6471 159.763 73.5656 159.727 74.735L159.184 92.6969Z" fill="#24C875"/>
<path fill-rule="evenodd" clip-rule="evenodd" d="M119.273 58.0792C118.332 58.0792 117.392 57.7009 116.705 56.9537C115.397 55.5357 115.487 53.3267 116.904 52.0194C122.52 46.8447 129.837 43.9951 137.508 43.9951C145.178 43.9951 152.495 46.8447 158.108 52.0184C159.526 53.3256 159.617 55.5347 158.31 56.9527C157.003 58.3707 154.794 58.4616 153.376 57.1544C149.055 53.172 143.419 50.9786 137.508 50.9786C131.595 50.9786 125.959 53.172 121.639 57.1544C120.967 57.774 120.12 58.0792 119.273 58.0792Z" fill="#003260"/>
<path fill-rule="evenodd" clip-rule="evenodd" d="M321.239 307.866H191.261C188.155 307.866 185.638 305.349 185.638 302.243V234.24C185.638 231.136 188.155 228.617 191.261 228.617H321.239C324.344 228.617 326.862 231.136 326.862 234.24V302.243C326.862 305.349 324.344 307.866 321.239 307.866Z" fill="#003260"/>
<path fill-rule="evenodd" clip-rule="evenodd" d="M245.313 332.71H267.185V307.777H245.313V332.71Z" fill="#01131C"/>
<path fill-rule="evenodd" clip-rule="evenodd" d="M266.86 269.215C266.86 275.21 262 280.07 256.005 280.07C250.01 280.07 245.15 275.21 245.15 269.215C245.15 263.22 250.01 258.36 256.005 258.36C262 258.36 266.86 263.22 266.86 269.215Z" fill="#1D567E"/>
<path fill-rule="evenodd" clip-rule="evenodd" d="M284.108 332.71H227.693V330.809C227.693 326.974 230.801 323.864 234.637 323.864H277.163C280.998 323.864 284.108 326.974 284.108 330.809V332.71Z" fill="#011E30"/>
<path fill-rule="evenodd" clip-rule="evenodd" d="M304.572 156.22V167.109C304.572 167.26 304.447 167.386 304.294 167.386H301.214C301.055 167.386 300.937 167.26 300.937 167.109V156.22C300.937 156.069 301.055 155.943 301.214 155.943H304.294C304.447 155.943 304.572 156.069 304.572 156.22Z" fill="#003260"/>
<path fill-rule="evenodd" clip-rule="evenodd" d="M301.995 184.452H293.862C291.627 184.452 289.816 182.641 289.816 180.406V160.946H306.041V180.406C306.041 182.641 304.23 184.452 301.995 184.452Z" fill="#77C1F7"/>
<path fill-rule="evenodd" clip-rule="evenodd" d="M289.816 163.604H306.041V160.946H289.816V163.604Z" fill="white"/>
<path fill-rule="evenodd" clip-rule="evenodd" d="M301.565 167.383H303.944V158.289H301.565V167.383Z" fill="#1D6499"/>
<path fill-rule="evenodd" clip-rule="evenodd" d="M304.572 156.22V157.346H300.937V156.22C300.937 156.069 301.055 155.943 301.214 155.943H304.294C304.447 155.943 304.572 156.069 304.572 156.22Z" fill="#1A5A89"/>
</svg>
